<?xml version="1.0" encoding="UTF-8" standalone="no"?>
<!-- Generator: Adobe Illustrator 12.0.0, SVG Export Plug-In . SVG Version: 6.00 Build 51448)  -->
<svg
   xmlns:dc="http://purl.org/dc/elements/1.1/"
   xmlns:cc="http://web.resource.org/cc/"
   xmlns:rdf="http://www.w3.org/1999/02/22-rdf-syntax-ns#"
   xmlns:svg="http://www.w3.org/2000/svg"
   xmlns="http://www.w3.org/2000/svg"
   xmlns:sodipodi="http://sodipodi.sourceforge.net/DTD/sodipodi-0.dtd"
   xmlns:inkscape="http://www.inkscape.org/namespaces/inkscape"
   height="359.636"
   id="Layer_1"
   inkscape:version="0.45.1"
   sodipodi:docbase="/usr/local/nagios/share/images"
   sodipodi:docname="carpentiere.svg"
   sodipodi:version="0.32"
   space="preserve"
   style="overflow:visible;enable-background:new 0 0 397.122 359.636;"
   version="1.1"
   viewBox="0 0 397.122 359.636"
   width="397.122"
   inkscape:output_extension="org.inkscape.output.svg.inkscape">
  <metadata
     id="metadata3">
    <rdf:RDF>
      <cc:Work
         rdf:about="">
        <dc:title>Various Cliparts</dc:title>
        <dc:description />
        <dc:subject>
          <rdf:Bag>
            <rdf:li />
          </rdf:Bag>
        </dc:subject>
        <dc:publisher>
          <cc:Agent
             rdf:about="http://www.openclipart.org/">
            <dc:title />
          </cc:Agent>
        </dc:publisher>
        <dc:creator>
          <cc:Agent>
            <dc:title>Architetto Francesco Rollandin</dc:title>
          </cc:Agent>
        </dc:creator>
        <dc:rights>
          <cc:Agent>
            <dc:title>Architetto Francesco Rollandin</dc:title>
          </cc:Agent>
        </dc:rights>
        <dc:date />
        <dc:format>image/svg+xml</dc:format>
        <dc:type
           rdf:resource="http://purl.org/dc/dcmitype/StillImage" />
        <cc:license
           rdf:resource="http://web.resource.org/cc/PublicDomain" />
        <dc:language>en</dc:language>
      </cc:Work>
      <cc:License
         rdf:about="http://web.resource.org/cc/PublicDomain">
        <cc:permits
           rdf:resource="http://web.resource.org/cc/Reproduction" />
        <cc:permits
           rdf:resource="http://web.resource.org/cc/Distribution" />
        <cc:permits
           rdf:resource="http://web.resource.org/cc/DerivativeWorks" />
      </cc:License>
    </rdf:RDF>
  </metadata>
  <defs
     id="defs132" />
  <sodipodi:namedview
     bordercolor="#666666"
     borderopacity="1.0"
     id="base"
     inkscape:current-layer="Layer_1"
     inkscape:cx="198.56100"
     inkscape:cy="179.81799"
     inkscape:pageopacity="0.0"
     inkscape:pageshadow="2"
     inkscape:window-height="510"
     inkscape:window-width="787"
     inkscape:window-x="22"
     inkscape:window-y="29"
     inkscape:zoom="1.0010122"
     pagecolor="#ffffff" />
  <g
     id="g2221"
     transform="matrix(1,0,0,0.9546296,0.9989888,-4.8139946e-5)">
    <path
       style="fill:#28bfc9"
       id="path3"
       d="M 0,248.68 C 6.732,223.652 13.463,198.623 20.195,173.595 C 24.194,158.727 28.193,143.86 32.192,128.992 C 33.062,125.759 33.931,122.525 34.801,119.292 C 35.202,117.801 45.007,114.275 46.552,113.502 C 56.798,108.379 67.339,103.111 78.542,100.453 C 91.555,97.365 103.815,96.274 117.167,96.455 C 140.543,96.771 161.652,107.421 184.407,110.762 C 232.3,117.793 283.078,118.803 330.438,107.108 C 344.288,103.689 356.939,99.988 369.501,93.135 C 350.436,138.303 334.978,185.241 318.489,231.403 C 316.039,238.261 313.739,245.17 311.311,252.036 C 300.382,247.353 289.808,243.101 277.93,241.585 C 266.647,240.145 254.788,240.239 243.486,241.602 C 219.415,244.502 196.02,249.327 172.275,254.115 C 147.955,259.018 123.124,263.883 98.209,264.139 C 73.925,264.389 48.415,264.499 24.831,257.826 C 20.315,256.549 15.824,255.3 11.383,253.783 C 7.324,252.397 3.898,250.246 0,248.68" />
    <path
       style="fill:#28bfc9"
       id="path5"
       d="M 42.524,92.017 C 57.667,79.035 74.095,67.398 90.977,56.767 C 98.793,51.846 107.187,44.607 116.627,43.19 C 119.356,42.78 129.216,41.249 128.888,46.509 C 128.539,52.117 125.279,56.144 122.198,60.684 C 131.85,54.25 143.406,48.454 155.32,48.374 C 161.976,48.33 166.568,50.519 170.448,55.768 C 174.026,60.608 172.406,68.255 171.746,73.754 C 168.602,99.937 210.45,101.792 227.833,102.759 C 252.788,104.148 277.791,102.702 302.641,100.472 C 325.603,98.411 351.597,93.625 370.554,79.893 C 379.187,73.64 382.258,59.532 386.13,49.997 C 388.462,44.257 390.756,38.503 393.093,32.765 C 394.111,30.265 394.987,27.699 396.049,25.22 C 397.957,20.769 397.473,21.146 393.372,18.501 C 374.689,6.45 349.228,1.025 327.259,0.181 C 301.268,-0.818 276.696,2.377 251.309,7.762 C 240.738,10.004 230.356,13.072 219.731,15.064 C 206.167,17.608 192.706,19.795 179.036,21.693 C 159.92,24.348 140.601,25.881 121.303,25.657 C 111.759,25.547 101.952,25.284 92.593,23.256 C 87.583,22.171 82.721,21.429 78.078,19.27 C 72.702,16.77 70.299,14.703 66.247,10.327 C 62.32,23.864 58.387,37.395 54.513,50.948 C 52.552,57.81 50.416,64.619 48.455,71.481 C 47.422,75.095 46.397,78.709 45.408,82.335 C 44.595,85.313 44.112,89.667 42.524,92.017" />
  </g>
  <flowRoot
     xml:space="preserve"
     id="flowRoot2225"
     transform="matrix(2.1109168,0.5049613,-0.5151345,2.5841499,43.168741,121.94187)"
     style="font-family:方正宋体;font-weight:normal;font-style:normal;font-stretch:normal;font-variant:normal;font-size:4.18302114px;text-anchor:start;text-align:start;writing-mode:lr;line-height:125%"><flowRegion
       id="flowRegion2227"><rect
         id="rect2229"
         width="146.85136"
         height="81.917084"
         x="0.99897665"
         y="9.8635028e-06"
         style="font-family:方正宋体;font-weight:normal;font-style:normal;font-stretch:normal;font-variant:normal;font-size:4.18302114px;text-anchor:start;text-align:start;writing-mode:lr;line-height:125%" /></flowRegion><flowPara
       id="flowPara2231"
       style="fill:#0000ff;font-family:方正宋体;font-weight:normal;font-style:normal;font-stretch:normal;font-variant:normal;font-size:4.18302114px;text-anchor:start;text-align:start;writing-mode:lr;line-height:125%">Nagios-CN中文特别版本</flowPara></flowRoot>  <g
     style="overflow:visible"
     id="g2242"
     transform="matrix(0.5497134,0,0,0.475032,0.6872648,189.8091)">
    <g
       transform="matrix(1,0,0,0.8714508,0.9989889,129.86842)"
       id="g2244">
      <path
         d="M 0,248.68 C 6.732,223.652 13.463,198.623 20.195,173.595 C 24.194,158.727 28.193,143.86 32.192,128.992 C 33.062,125.759 33.931,122.525 34.801,119.292 C 35.202,117.801 45.007,114.275 46.552,113.502 C 56.798,108.379 67.339,103.111 78.542,100.453 C 91.555,97.365 103.815,96.274 117.167,96.455 C 140.543,96.771 161.652,107.421 184.407,110.762 C 232.3,117.793 283.078,118.803 330.438,107.108 C 344.288,103.689 356.939,99.988 369.501,93.135 C 350.436,138.303 334.978,185.241 318.489,231.403 C 316.039,238.261 313.739,245.17 311.311,252.036 C 300.382,247.353 289.808,243.101 277.93,241.585 C 266.647,240.145 254.788,240.239 243.486,241.602 C 219.415,244.502 196.02,249.327 172.275,254.115 C 147.955,259.018 123.124,263.883 98.209,264.139 C 73.925,264.389 48.415,264.499 24.831,257.826 C 20.315,256.549 15.824,255.3 11.383,253.783 C 7.324,252.397 3.898,250.246 0,248.68"
         id="path2246"
         style="fill:#28bfc9" />
      <path
         d="M 42.524,92.017 C 57.667,79.035 74.095,67.398 90.977,56.767 C 98.793,51.846 107.187,44.607 116.627,43.19 C 119.356,42.78 129.216,41.249 128.888,46.509 C 128.539,52.117 125.279,56.144 122.198,60.684 C 131.85,54.25 143.406,48.454 155.32,48.374 C 161.976,48.33 166.568,50.519 170.448,55.768 C 174.026,60.608 172.406,68.255 171.746,73.754 C 168.602,99.937 210.45,101.792 227.833,102.759 C 252.788,104.148 277.791,102.702 302.641,100.472 C 325.603,98.411 351.597,93.625 370.554,79.893 C 379.187,73.64 382.258,59.532 386.13,49.997 C 388.462,44.257 390.756,38.503 393.093,32.765 C 394.111,30.265 394.987,27.699 396.049,25.22 C 397.957,20.769 397.473,21.146 393.372,18.501 C 374.689,6.45 349.228,1.025 327.259,0.181 C 301.268,-0.818 276.696,2.377 251.309,7.762 C 240.738,10.004 230.356,13.072 219.731,15.064 C 206.167,17.608 192.706,19.795 179.036,21.693 C 159.92,24.348 140.601,25.881 121.303,25.657 C 111.759,25.547 101.952,25.284 92.593,23.256 C 87.583,22.171 82.721,21.429 78.078,19.27 C 72.702,16.77 70.299,14.703 66.247,10.327 C 62.32,23.864 58.387,37.395 54.513,50.948 C 52.552,57.81 50.416,64.619 48.455,71.481 C 47.422,75.095 46.397,78.709 45.408,82.335 C 44.595,85.313 44.112,89.667 42.524,92.017"
         id="path2248"
         style="fill:#28bfc9" />
    </g>
    <flowRoot
       transform="matrix(2.1109168,0.460963,-0.5151345,2.3589876,43.168741,241.18529)"
       id="flowRoot2250"
       xml:space="preserve"><flowRegion
         id="flowRegion2252"><rect
           y="9.8635028e-06"
           x="0.99897665"
           height="81.917084"
           width="146.85136"
           id="rect2254" /></flowRegion><flowPara
         style="fill:#0000ff"
         id="flowPara2256">Nagios-CN中文特别版本</flowPara></flowRoot>  </g>
  <g
     style="overflow:visible"
     id="g2258"
     transform="matrix(0.5371356,0,0,0.5184178,181.51682,167.19189)">
    <g
       transform="matrix(1,0,0,0.8714508,0.9989889,129.86842)"
       id="g2260">
      <path
         d="M 0,248.68 C 6.732,223.652 13.463,198.623 20.195,173.595 C 24.194,158.727 28.193,143.86 32.192,128.992 C 33.062,125.759 33.931,122.525 34.801,119.292 C 35.202,117.801 45.007,114.275 46.552,113.502 C 56.798,108.379 67.339,103.111 78.542,100.453 C 91.555,97.365 103.815,96.274 117.167,96.455 C 140.543,96.771 161.652,107.421 184.407,110.762 C 232.3,117.793 283.078,118.803 330.438,107.108 C 344.288,103.689 356.939,99.988 369.501,93.135 C 350.436,138.303 334.978,185.241 318.489,231.403 C 316.039,238.261 313.739,245.17 311.311,252.036 C 300.382,247.353 289.808,243.101 277.93,241.585 C 266.647,240.145 254.788,240.239 243.486,241.602 C 219.415,244.502 196.02,249.327 172.275,254.115 C 147.955,259.018 123.124,263.883 98.209,264.139 C 73.925,264.389 48.415,264.499 24.831,257.826 C 20.315,256.549 15.824,255.3 11.383,253.783 C 7.324,252.397 3.898,250.246 0,248.68"
         id="path2262"
         style="fill:#28bfc9" />
      <path
         d="M 42.524,92.017 C 57.667,79.035 74.095,67.398 90.977,56.767 C 98.793,51.846 107.187,44.607 116.627,43.19 C 119.356,42.78 129.216,41.249 128.888,46.509 C 128.539,52.117 125.279,56.144 122.198,60.684 C 131.85,54.25 143.406,48.454 155.32,48.374 C 161.976,48.33 166.568,50.519 170.448,55.768 C 174.026,60.608 172.406,68.255 171.746,73.754 C 168.602,99.937 210.45,101.792 227.833,102.759 C 252.788,104.148 277.791,102.702 302.641,100.472 C 325.603,98.411 351.597,93.625 370.554,79.893 C 379.187,73.64 382.258,59.532 386.13,49.997 C 388.462,44.257 390.756,38.503 393.093,32.765 C 394.111,30.265 394.987,27.699 396.049,25.22 C 397.957,20.769 397.473,21.146 393.372,18.501 C 374.689,6.45 349.228,1.025 327.259,0.181 C 301.268,-0.818 276.696,2.377 251.309,7.762 C 240.738,10.004 230.356,13.072 219.731,15.064 C 206.167,17.608 192.706,19.795 179.036,21.693 C 159.92,24.348 140.601,25.881 121.303,25.657 C 111.759,25.547 101.952,25.284 92.593,23.256 C 87.583,22.171 82.721,21.429 78.078,19.27 C 72.702,16.77 70.299,14.703 66.247,10.327 C 62.32,23.864 58.387,37.395 54.513,50.948 C 52.552,57.81 50.416,64.619 48.455,71.481 C 47.422,75.095 46.397,78.709 45.408,82.335 C 44.595,85.313 44.112,89.667 42.524,92.017"
         id="path2264"
         style="fill:#28bfc9" />
    </g>
    <flowRoot
       transform="matrix(2.1109168,0.460963,-0.5151345,2.3589876,43.168741,241.18529)"
       id="flowRoot2266"
       xml:space="preserve"><flowRegion
         id="flowRegion2268"><rect
           y="9.8635028e-06"
           x="0.99897665"
           height="81.917084"
           width="146.85136"
           id="rect2270" /></flowRegion><flowPara
         style="fill:#0000ff"
         id="flowPara2272">Nagios-CN中文特别版本</flowPara></flowRoot>  </g>
</svg>
