<?xml version="1.0" encoding="UTF-8" standalone="no"?>
<!-- Created with Inkscape (http://www.inkscape.org/) -->
<svg
   xmlns:dc="http://purl.org/dc/elements/1.1/"
   xmlns:cc="http://web.resource.org/cc/"
   xmlns:rdf="http://www.w3.org/1999/02/22-rdf-syntax-ns#"
   xmlns:svg="http://www.w3.org/2000/svg"
   xmlns="http://www.w3.org/2000/svg"
   xmlns:xlink="http://www.w3.org/1999/xlink"
   xmlns:sodipodi="http://sodipodi.sourceforge.net/DTD/sodipodi-0.dtd"
   xmlns:inkscape="http://www.inkscape.org/namespaces/inkscape"
   height="50"
   id="Andysvg"
   inkscape:version="0.45.1"
   sodipodi:docbase="/usr/local/nagios/share/images/logos"
   sodipodi:docname="computer.svg"
   sodipodi:version="0.32"
   version="1.0"
   width="40"
   x="0.00000000"
   y="0.00000000"
   inkscape:output_extension="org.inkscape.output.svg.inkscape">
  <metadata
     id="metadata3">
    <rdf:RDF>
      <cc:Work
         rdf:about="">
        <dc:title>Etiquette Icons</dc:title>
        <dc:description />
        <dc:subject>
          <rdf:Bag>
            <rdf:li>hash</rdf:li>
            <rdf:li />
            <rdf:li>hardware</rdf:li>
            <rdf:li>computer</rdf:li>
          </rdf:Bag>
        </dc:subject>
        <dc:publisher>
          <cc:Agent
             rdf:about="http://www.openclipart.org">
            <dc:title>Andy Fitzsimon</dc:title>
          </cc:Agent>
        </dc:publisher>
        <dc:creator>
          <cc:Agent>
            <dc:title>Andy Fitzsimon</dc:title>
          </cc:Agent>
        </dc:creator>
        <dc:rights>
          <cc:Agent>
            <dc:title>Andy Fitzsimon</dc:title>
          </cc:Agent>
        </dc:rights>
        <dc:date />
        <dc:format>image/svg+xml</dc:format>
        <dc:type
           rdf:resource="http://purl.org/dc/dcmitype/StillImage" />
        <cc:license
           rdf:resource="http://web.resource.org/cc/PublicDomain" />
        <dc:language>en</dc:language>
      </cc:Work>
      <cc:License
         rdf:about="http://web.resource.org/cc/PublicDomain">
        <cc:permits
           rdf:resource="http://web.resource.org/cc/Reproduction" />
        <cc:permits
           rdf:resource="http://web.resource.org/cc/Distribution" />
        <cc:permits
           rdf:resource="http://web.resource.org/cc/DerivativeWorks" />
      </cc:License>
    </rdf:RDF>
  </metadata>
  <defs
     id="defs3">
    <linearGradient
       id="linearGradient1806">
      <stop
         id="stop1807"
         offset="0.0000000"
         style="stop-color:#000000;stop-opacity:0.35051546;" />
      <stop
         id="stop3276"
         offset="0.64999998"
         style="stop-color:#000000;stop-opacity:0.13402061;" />
      <stop
         id="stop1808"
         offset="1.0000000"
         style="stop-color:#000000;stop-opacity:0.0000000;" />
    </linearGradient>
    <radialGradient
       cx="42.007256"
       cy="39.007645"
       fx="42.280807"
       fy="39.410465"
       id="radialGradient1977"
       r="11.574221"
       xlink:href="#linearGradient1806"
       gradientUnits="userSpaceOnUse" />
    <linearGradient
       id="linearGradient893">
      <stop
         id="stop895"
         offset="0"
         style="stop-color:#000;stop-opacity:1;" />
      <stop
         id="stop896"
         offset="1"
         style="stop-color:#fff;stop-opacity:1;" />
    </linearGradient>
    <linearGradient
       id="linearGradient1317">
      <stop
         id="stop1318"
         offset="0.00000000"
         style="stop-color:#000000;stop-opacity:0.52892560;" />
      <stop
         id="stop1320"
         offset="0.50000000"
         style="stop-color:#000000;stop-opacity:0.17355372;" />
      <stop
         id="stop1319"
         offset="1.0000000"
         style="stop-color:#000000;stop-opacity:0.00000000;" />
    </linearGradient>
    <linearGradient
       id="linearGradient1133">
      <stop
         id="stop1134"
         offset="0.00000000"
         style="stop-color:#8bb7df;stop-opacity:1.0000000;" />
      <stop
         id="stop1136"
         offset="0.76209301"
         style="stop-color:#2a6092;stop-opacity:1.0000000;" />
      <stop
         id="stop1135"
         offset="1.0000000"
         style="stop-color:#375e82;stop-opacity:1.0000000;" />
    </linearGradient>
    <linearGradient
       id="linearGradient1098">
      <stop
         id="stop1099"
         offset="0.00000000"
         style="stop-color:#ffffff;stop-opacity:1.0000000;" />
      <stop
         id="stop1101"
         offset="0.50000000"
         style="stop-color:#ffffff;stop-opacity:0.22314049;" />
      <stop
         id="stop1102"
         offset="0.59930235"
         style="stop-color:#ffffff;stop-opacity:0.00000000;" />
      <stop
         id="stop1100"
         offset="1.0000000"
         style="stop-color:#ffffff;stop-opacity:0.60330576;" />
    </linearGradient>
    <linearGradient
       id="linearGradient902">
      <stop
         id="stop903"
         offset="0.00000000"
         style="stop-color:#000000;stop-opacity:0.00000000;" />
      <stop
         id="stop904"
         offset="1.0000000"
         style="stop-color:#000000;stop-opacity:0.22000000;" />
    </linearGradient>
    <linearGradient
       id="linearGradient892">
      <stop
         id="stop893"
         offset="0.00000000"
         style="stop-color:#ffffff;stop-opacity:0.00000000;" />
      <stop
         id="stop894"
         offset="1"
         style="stop-color:#fff;stop-opacity:1;" />
    </linearGradient>
    <linearGradient
       id="linearGradient888">
      <stop
         id="stop889"
         offset="0.0000000"
         style="stop-color:#626262;stop-opacity:1.0000000;" />
      <stop
         id="stop890"
         offset="1"
         style="stop-color:#fff;stop-opacity:1;" />
    </linearGradient>
    <linearGradient
       id="linearGradient891"
       x1="92.437965"
       x2="27.674332"
       xlink:href="#linearGradient888"
       y1="-3.9104078"
       y2="91.076988"
       gradientTransform="scale(1.2267534,0.8151598)"
       gradientUnits="userSpaceOnUse" />
    <linearGradient
       id="linearGradient901"
       xlink:href="#linearGradient1806" />
    <linearGradient
       id="linearGradient905"
       x1="-77.726181"
       x2="95.64444"
       xlink:href="#linearGradient888"
       y1="208.43991"
       y2="11.699047"
       gradientTransform="scale(1.0964158,0.9120627)"
       gradientUnits="userSpaceOnUse" />
    <radialGradient
       cx="60.004654"
       cy="56.485935"
       fx="72.10788"
       fy="39.288475"
       id="radialGradient1132"
       r="68.589226"
       xlink:href="#linearGradient1133"
       gradientTransform="scale(1.2267534,0.8151598)"
       gradientUnits="userSpaceOnUse" />
    <linearGradient
       id="linearGradient1138"
       x1="0.53061223"
       x2="0.3877551"
       xlink:href="#linearGradient1806"
       y1="2.640625"
       y2="0.328125" />
    <linearGradient
       id="linearGradient1140"
       x1="45.685757"
       x2="41.96706"
       xlink:href="#linearGradient888"
       y1="110.4447"
       y2="232.24953"
       gradientTransform="scale(1.9102155,0.5235012)"
       gradientUnits="userSpaceOnUse" />
    <linearGradient
       id="linearGradient1141"
       x1="0"
       x2="0.92957747"
       xlink:href="#linearGradient888"
       y1="3.3012049"
       y2="-0.45783132" />
    <linearGradient
       id="linearGradient1144"
       x1="31.449743"
       x2="31.617281"
       xlink:href="#linearGradient892"
       y1="203.49899"
       y2="251.21892"
       gradientTransform="scale(2.1051174,0.4750329)"
       gradientUnits="userSpaceOnUse" />
    <linearGradient
       id="linearGradient1146"
       x1="39.810947"
       x2="17.87653"
       xlink:href="#linearGradient892"
       y1="90.197021"
       y2="113.71949"
       gradientTransform="scale(1.3207392,0.7571517)"
       gradientUnits="userSpaceOnUse" />
    <linearGradient
       id="linearGradient1148"
       x1="39.690613"
       x2="70.224304"
       xlink:href="#linearGradient892"
       y1="49.507656"
       y2="20.481863"
       gradientTransform="scale(1.329144,0.7523639)"
       gradientUnits="userSpaceOnUse" />
    <linearGradient
       id="linearGradient1150"
       x1="35.190361"
       x2="8.3460579"
       xlink:href="#linearGradient892"
       y1="76.277557"
       y2="105.42543"
       gradientTransform="scale(1.3283861,0.7527932)"
       gradientUnits="userSpaceOnUse" />
    <linearGradient
       id="linearGradient1156"
       x1="25.220816"
       x2="25.220816"
       xlink:href="#linearGradient888"
       y1="178.48862"
       y2="234.26866"
       gradientTransform="scale(2.4217071,0.4129318)"
       gradientUnits="userSpaceOnUse" />
    <linearGradient
       id="linearGradient1157"
       x1="51.46093"
       x2="-16.224497"
       xlink:href="#linearGradient888"
       y1="269.85831"
       y2="176.28694"
       gradientTransform="scale(2.4217071,0.4129318)"
       gradientUnits="userSpaceOnUse" />
    <linearGradient
       id="linearGradient1166"
       x1="111.49758"
       x2="107.04918"
       xlink:href="#linearGradient1317"
       y1="131.25249"
       y2="148.78619"
       gradientTransform="scale(1.223869,0.8170809)"
       gradientUnits="userSpaceOnUse" />
    <linearGradient
       id="linearGradient1167"
       x1="141.60217"
       x2="88.447014"
       xlink:href="#linearGradient888"
       y1="228.39311"
       y2="133.5471"
       gradientTransform="scale(1.1838753,0.8446836)"
       gradientUnits="userSpaceOnUse" />
    <linearGradient
       id="linearGradient1169"
       x1="146.69923"
       x2="74.533691"
       xlink:href="#linearGradient893"
       y1="224.57898"
       y2="81.4776"
       gradientTransform="scale(1.1870691,0.842411)"
       gradientUnits="userSpaceOnUse" />
    <linearGradient
       gradientTransform="scale(0.998371,1.001632)"
       id="linearGradient1170"
       x1="0.47284532"
       x2="0.48655096"
       xlink:href="#linearGradient902"
       y1="-0.016295359"
       y2="1.8378206" />
    <linearGradient
       id="linearGradient1171"
       x1="101.10657"
       x2="95.100159"
       xlink:href="#linearGradient902"
       y1="177.77768"
       y2="173.03152"
       gradientTransform="scale(1.3601783,0.7351977)"
       gradientUnits="userSpaceOnUse" />
    <radialGradient
       cx="0.47887325"
       cy="0.53333336"
       fx="0.47535211"
       fy="0.26666668"
       id="radialGradient1315"
       r="0.41197181"
       xlink:href="#linearGradient1317" />
    <radialGradient
       cx="0.5"
       cy="0.50000006"
       fx="0.50352114"
       fy="0.18269235"
       id="radialGradient1316"
       r="0.34964636"
       xlink:href="#linearGradient1317" />
    <linearGradient
       id="linearGradient1404"
       x1="88.755692"
       x2="88.996956"
       xlink:href="#linearGradient892"
       y1="169.09755"
       y2="182.99155"
       gradientTransform="scale(1.3695887,0.7301462)"
       gradientUnits="userSpaceOnUse" />
    <linearGradient
       gradientTransform="scale(0.997825,1.00218)"
       id="linearGradient1505"
       x1="0.47157744"
       x2="0.48548824"
       xlink:href="#linearGradient902"
       y1="-0.02485317"
       y2="1.8570156" />
    <linearGradient
       gradientTransform="scale(0.995847,1.00417)"
       id="linearGradient1506"
       x1="0.4704251"
       x2="0.48481107"
       xlink:href="#linearGradient902"
       y1="-0.04365262"
       y2="1.9025002" />
    <linearGradient
       gradientTransform="scale(0.997153,1.002855)"
       id="linearGradient2740"
       x1="0.47041038"
       x2="0.48453596"
       xlink:href="#linearGradient902"
       y1="-0.033741195"
       y2="1.8771822" />
    <linearGradient
       id="linearGradient4283"
       x1="-0.77314812"
       x2="0.99074072"
       xlink:href="#linearGradient893"
       y1="2.0837989"
       y2="-0.033519555" />
    <linearGradient
       id="linearGradient4284"
       x1="-2.3960868e-17"
       x2="0.92957747"
       xlink:href="#linearGradient893"
       y1="3.3012049"
       y2="-0.45783132" />
    <linearGradient
       inkscape:collect="always"
       xlink:href="#linearGradient1806"
       id="linearGradient2257"
       x1="-249.72067"
       y1="375.922"
       x2="-268.25406"
       y2="75.912529"
       gradientTransform="scale(1.087146,0.9198397)"
       gradientUnits="userSpaceOnUse" />
    <linearGradient
       inkscape:collect="always"
       xlink:href="#linearGradient1806"
       id="linearGradient2259"
       x1="-248.73039"
       y1="358.13522"
       x2="-266.11459"
       y2="76.728447"
       gradientTransform="scale(1.0901692,0.9172888)"
       gradientUnits="userSpaceOnUse" />
    <linearGradient
       inkscape:collect="always"
       xlink:href="#linearGradient1806"
       id="linearGradient2261"
       x1="-249.64897"
       y1="367.33072"
       x2="-267.62701"
       y2="76.311188"
       gradientTransform="scale(1.0880088,0.9191102)"
       gradientUnits="userSpaceOnUse" />
    <linearGradient
       inkscape:collect="always"
       xlink:href="#linearGradient1806"
       id="linearGradient2263"
       x1="-249.72067"
       y1="375.922"
       x2="-268.25406"
       y2="75.912529"
       gradientTransform="scale(1.087146,0.9198397)"
       gradientUnits="userSpaceOnUse" />
  </defs>
  <sodipodi:namedview
     bordercolor="#666666"
     borderopacity="1.0"
     id="base"
     inkscape:cx="87.370972"
     inkscape:cy="45.950867"
     inkscape:pageopacity="0.0"
     inkscape:pageshadow="2"
     inkscape:window-height="734"
     inkscape:window-width="1280"
     inkscape:window-x="0"
     inkscape:window-y="0"
     inkscape:zoom="2"
     pagecolor="#ffffff"
     showborder="true"
     inkscape:current-layer="Andysvg"
     showgrid="false"
     width="40px"
     height="50px" />
  <g
     id="g2236"
     transform="matrix(0.248947,0,0,0.3060345,0.5526855,-0.4593569)">
    <path
       transform="matrix(6.392368,0.545409,-0.130014,2.864752,-184.6606,-38.15109)"
       style="fill:url(#radialGradient1977);fill-opacity:1;fill-rule:evenodd;stroke-width:1pt"
       sodipodi:type="arc"
       sodipodi:ry="12.562782"
       sodipodi:rx="12.562782"
       sodipodi:cy="37.865574"
       sodipodi:cx="41.875938"
       id="path1976"
       d="M 54.438721 37.865574 A 12.562782 12.562782 0 1 1  29.313156,37.865574 A 12.562782 12.562782 0 1 1  54.438721 37.865574 z" />
    <g
       transform="matrix(1,0,0,1.036969,356.8306,-11.4294)"
       style="fill:url(#linearGradient2257);fill-opacity:1"
       id="g4293">
      <path
         style="fill:url(#linearGradient2259);fill-opacity:1;stroke-width:1pt;font-family:helvetica"
         id="path2720"
         d="M -270.85787,33.814995 C -289.35564,33.925992 -307.93321,33.592782 -326.38104,33.981747 C -331.43469,35.696391 -331.02221,41.899652 -330.68524,46.15332 C -330.75782,60.227303 -330.53537,74.298225 -330.21167,88.36826 C -328.21297,91.039611 -323.21766,90.618387 -322.68469,94.539015 C -320.78054,96.259426 -317.05071,94.88215 -314.4389,95.333237 C -298.54999,95.360274 -282.66107,95.387302 -266.77215,95.414339 C -266.35587,90.465192 -260.12609,88.824447 -255.81783,89.540255 C -256.01688,89.058389 -261.69557,87.939375 -259.61591,84.491525 C -259.45681,68.72727 -259.19734,52.882199 -259.82064,37.168229 C -261.19394,32.980583 -267.34179,33.83368 -270.85787,33.814995 z M -236.65184,97.260473 C -234.79025,100.12642 -237.08724,103.09386 -239.92892,104.16357 C -242.6311,105.91539 -245.59105,107.62992 -248.52894,108.76804 C -253.1773,108.19079 -251.42424,101.88475 -255.01281,99.896645 C -260.33594,96.447012 -267.21045,98.43943 -273.23329,97.939231 C -291.8249,97.94887 -310.41651,97.958519 -329.00813,97.968158 C -335.45898,103.56578 -339.16595,111.40269 -341.55034,119.32178 C -337.25147,124.2061 -329.89606,122.27575 -324.10438,122.40002 C -298.64553,122.23171 -273.11679,122.61546 -247.69897,122.24542 C -243.40174,121.14669 -247.44685,114.84894 -243.58488,113.04441 C -242.73865,112.73374 -247.81245,114.4382 -247.26205,111.62955 C -245.49117,106.66028 -239.14113,105.99595 -235.92338,102.36811 C -234.39131,99.755669 -236.26958,96.922488 -238.33047,95.260495 C -237.77093,95.927151 -237.21138,96.593817 -236.65184,97.260473 z M -240.64255,111.75263 C -243.64086,113.13223 -237.02792,110.69536 -235.55512,111.97369 C -229.71113,112.74417 -224.16461,117.19625 -218.12358,115.22951 C -225.97639,116.31604 -232.799,109.03014 -240.64255,111.75263 z M -212.01083,112.33724 C -215.98173,113.85021 -208.21543,112.17765 -210.07883,115.87566 C -212.50961,119.93855 -206.99008,113.8662 -209.61436,112.54677 C -210.16198,111.94632 -211.27989,112.47663 -212.01083,112.33724 z M -213.97451,120.82946 C -220.13871,124.32615 -228.37873,119.08124 -233.85995,124.39439 C -238.36465,128.00055 -244.57099,130.35185 -247.0433,135.75122 C -247.65922,139.60202 -243.25109,141.90251 -240.44565,143.71808 C -235.60127,146.54512 -228.8227,145.75388 -225.20082,141.42836 C -220.62679,137.96117 -216.44182,134.08489 -212.48592,129.96782 C -212.82701,126.95048 -214.43694,123.63971 -213.97451,120.82946 z " />
      <path
         style="fill:url(#linearGradient2261);fill-opacity:1;stroke-width:1pt;font-family:helvetica"
         id="path2723"
         d="M -269.68453,32.256957 C -288.76965,32.351184 -307.87514,32.249603 -326.94796,32.349264 C -332.63884,33.663474 -333.90446,40.291305 -333.21597,45.149113 C -333.11996,59.896901 -333.07471,74.659754 -332.61729,89.39481 C -331.88583,93.310348 -324.86009,92.098674 -325.11097,96.44089 C -328.07184,96.184706 -331.5534,96.317135 -333.07248,99.246492 C -338.92562,104.98392 -341.99312,112.66465 -344.27268,120.28679 C -340.22572,125.96631 -332.26467,125.31453 -326.02946,124.71751 C -300.16629,124.7277 -274.28316,124.82043 -248.43245,124.77905 C -244.42424,124.78686 -243.30672,120.35609 -243.96666,117.2099 C -242.88598,112.93536 -237.04086,113.94554 -233.80717,114.98513 C -228.01851,116.64297 -221.26418,120.43074 -215.57982,116.37592 C -211.36091,113.71809 -213.05678,118.4029 -215.77936,119.43344 C -220.82539,122.25797 -227.09125,118.98178 -232.39677,121.20855 C -236.53238,123.88957 -240.74707,126.85249 -244.76678,129.74666 C -248.34219,132.01467 -251.90947,137.38626 -248.13747,140.97315 C -243.79274,146.02948 -236.37425,149.4527 -229.68248,147.08651 C -225.09383,144.85973 -221.79206,140.75401 -217.61535,137.88661 C -215.10454,135.69469 -212.49235,133.26839 -210.83749,130.50207 C -210.86477,126.92195 -214.68529,121.91303 -210.252,119.57013 C -207.25619,117.95208 -205.81053,112.12098 -209.75314,110.87946 C -214.16982,109.44692 -216.95156,115.09837 -221.43751,113.68608 C -228.47365,112.76758 -235.5565,107.20489 -242.69931,110.72434 C -246.89551,113.06547 -243.47174,109.4356 -241.45524,108.56544 C -237.85613,106.84628 -232.73147,104.36798 -233.94637,99.617708 C -234.27189,95.083838 -239.22223,93.197522 -242.95318,91.723135 C -247.61613,89.074942 -253.27003,89.345117 -258.06082,86.933298 C -257.89248,70.385101 -257.58805,53.76423 -258.26571,37.261116 C -259.2092,32.393288 -265.59824,31.96057 -269.68453,32.256957 z M -258.66259,91.764016 C -251.5059,92.239344 -243.21163,93.474137 -238.58238,99.271629 C -238.96251,103.06003 -244.00295,103.80224 -246.52821,106.14082 C -248.92267,108.48087 -251.12372,105.80503 -251.02958,103.27159 C -252.70852,98.336432 -258.20582,95.710815 -263.31841,96.533197 C -267.00561,96.7255 -263.71935,91.937514 -261.395,92.380192 C -260.48382,92.178338 -259.57521,91.953759 -258.66259,91.764016 z " />
      <path
         style="fill:url(#linearGradient2263);fill-opacity:1;stroke-width:1pt;font-family:helvetica"
         sodipodi:nodetypes="ccccczccccccccccccccccccczccccc"
         id="path2737"
         d="M -324.0398,30.70877 C -336.3492,30.820231 -335.15663,39.652507 -334.79476,45.313268 C -334.5469,60.436643 -334.38614,75.599009 -334.01234,90.698281 C -333.20516,93.057424 -330.71249,93.985661 -328.75475,95.252079 C -334.4553,96.476239 -336.96996,102.43195 -340.11175,106.59303 C -342.33294,111.36531 -347.84019,115.92868 -345.92111,121.43642 C -344.00204,126.94416 -332.21757,127.68181 -324.95408,127.12866 C -299.06901,127.09789 -273.17022,127.14905 -247.29372,127.06713 C -243.29961,126.16956 -240.99668,122.03601 -241.4977,118.23645 C -238.30082,114.95371 -233.32521,118.03039 -229.53292,118.63002 C -225.71641,119.31313 -232.5646,119.27527 -233.19362,120.54849 C -238.23604,122.95799 -242.6166,126.65447 -246.90973,130.10509 C -250.44674,132.97354 -252.4229,138.10741 -249.57412,142.08235 C -246.21315,145.92284 -241.41489,148.84284 -236.30395,149.79628 C -230.65487,150.83779 -225.57101,147.82678 -221.6157,144.24077 C -216.87391,140.59839 -212.0873,136.78287 -208.84361,131.80554 C -207.76302,128.26399 -211.47449,123.86671 -208.08348,121.09796 C -204.93438,118.46115 -204.06893,113.02076 -207.41836,110.2673 C -212.81988,106.81278 -218.36682,114.55112 -223.89705,111.29128 C -227.94209,110.1659 -231.91311,108.52596 -236.17676,108.45194 C -231.52711,105.88023 -229.62903,98.782331 -234.08944,95.153402 C -239.61551,89.404431 -248.455,88.793917 -255.40182,85.744487 C -255.86992,78.940296 -255.53665,71.972758 -255.70928,65.098797 C -255.80747,55.730822 -255.73864,46.312632 -255.94025,36.975777 C -258.03631,31.236293 -265.34014,30.439522 -270.76286,30.729689 C -289.40725,30.770714 -311.88665,30.597309 -324.0398,30.70877 z M -255.46516,94.482857 C -250.34561,95.62106 -244.69322,96.21649 -240.83258,100.05203 C -242.37635,102.55028 -245.27573,103.64481 -247.80048,104.97505 C -249.71506,99.684643 -254.39847,94.970039 -260.51378,95.138259 C -260.66903,94.131274 -256.73261,94.551178 -255.46516,94.482857 z " />
    </g>
    <rect
       y="78.658051"
       x="33.326111"
       width="57.567924"
       style="fill:url(#linearGradient1156);fill-opacity:1;fill-rule:evenodd;stroke:url(#linearGradient1157);stroke-width:1.44734821pt"
       id="rect1155"
       height="8.3153667" />
    <path
       style="fill:url(#linearGradient1169);fill-rule:evenodd;stroke-width:0.90459263;stroke-opacity:0.07438019"
       sodipodi:nodetypes="czzczczzzzzzzc"
       id="path2676"
       d="M 98.723806,78.927818 C 95.18666,77.759681 93.50122,82.555591 98.766686,81.004087 C 104.03217,79.452583 120.13123,85.906451 120.37383,89.795491 C 120.61643,93.905503 101.5003,98.581154 106.74108,104.42426 C 111.62816,110.70149 115.35468,100.13868 123.54696,104.21261 C 131.73923,108.17607 136.26048,109.72394 142.25488,104.94185 C 149.10027,101.9342 145.04599,107.07658 139.57918,113.60451 C 134.11237,120.13244 144.00251,115.08156 147.91225,105.31962 C 151.93248,95.557673 139.13128,107.33503 133.66268,105.40571 C 128.19408,103.47639 119.73678,97.849788 113.27625,102.55563 C 106.81572,107.26147 109.62894,99.493003 114.85637,97.90307 C 120.0838,96.092166 122.81363,93.045722 122.85597,90.161522 C 122.89831,87.498293 117.92629,84.811803 112.94229,82.402852 C 107.73732,79.993901 100.49788,78.588966 98.723806,78.927818 z " />
    <path
       style="fill:url(#linearGradient1140);fill-opacity:1;fill-rule:evenodd;stroke-width:1.44734821pt"
       sodipodi:nodetypes="czzzzzzzz"
       id="path1139"
       d="M 15.102732,106.80712 C 13.80355,109.23224 17.148847,113.52338 19.900059,113.52338 L 107.85106,113.52338 C 110.18914,113.52338 113.70766,110.4906 112.64839,108.40622 L 102.7339,88.897093 C 101.97024,87.394398 100.26184,86.65834 98.576216,86.65834 L 28.215425,86.658339 C 26.825434,86.658339 25.353768,87.671846 24.697385,88.897093 L 15.102732,106.80712 z " />
    <rect
       y="22.413721"
       x="26.015469"
       width="72.279724"
       style="fill:url(#linearGradient905);fill-opacity:1;fill-rule:evenodd;stroke-width:1.62826681"
       ry="5.4369707"
       rx="5.4369707"
       id="rect1137"
       height="60.126495" />
    <rect
       y="31.695871"
       x="33.386066"
       width="58.178177"
       style="fill:url(#radialGradient1132);fill-opacity:1;fill-rule:evenodd;stroke:url(#linearGradient891);stroke-width:1.4649456pt"
       id="rect1131"
       height="38.044163" />
    <path
       style="fill:url(#linearGradient1146);fill-opacity:1;fill-rule:evenodd;stroke-width:1pt"
       sodipodi:nodetypes="czzccccc"
       id="path1145"
       d="M 27.690431,52.841444 L 27.370609,74.749236 C 27.319624,78.241665 29.310209,80.477938 32.807578,80.506029 L 72.625393,80.825852 L 76.463254,71.87084 L 32.008024,71.55102 L 31.688202,52.681533 L 27.690431,52.841444 z " />
    <g
       transform="matrix(-1,0,0,1,125.4301,0)"
       id="g1791">
      <path
         style="fill:url(#linearGradient1148);fill-opacity:1;fill-rule:evenodd;stroke-width:1pt"
         sodipodi:nodetypes="czzccc"
         id="path1147"
         d="M 42.062098,33.460351 L 77.341205,33.008055 C 82.787126,32.938235 89.553204,38.416797 89.553204,43.863165 L 89.553204,60.14583 L 41.609801,59.693534 L 42.062098,33.460351 z " />
      <path
         style="fill:url(#linearGradient1150);fill-opacity:1;fill-rule:evenodd;stroke-width:1pt"
         sodipodi:nodetypes="czzccc"
         id="path1149"
         d="M 78.337784,67.629235 L 46.723745,67.724544 C 41.843589,67.739257 35.829319,62.771024 35.877168,57.891081 L 36.020221,43.301821 L 78.973514,44.128288 L 78.337784,67.629235 z " />
    </g>
    <path
       style="fill:url(#linearGradient1167);fill-opacity:1;fill-rule:evenodd;stroke-width:0.72367412;stroke-opacity:0.34710747"
       sodipodi:nodetypes="cczzzzzzc"
       id="path1159"
       d="M 137.39107,112.02341 C 137.39107,112.02341 129.0757,110.26438 123.63872,113.62251 C 118.20176,116.98064 109.96635,123.21719 108.76702,124.81628 C 107.40777,126.57531 107.42036,130.22796 109.24674,131.53253 L 114.84364,135.53031 C 118.31797,138.01198 124.86218,139.25396 128.11624,136.48978 L 142.98795,123.85681 C 144.79792,122.3193 145.72732,118.27921 144.10733,116.82073 C 142.95609,115.04975 140.4892,112.91939 137.39107,112.02341 z " />
    <path
       style="fill:url(#linearGradient1171);fill-opacity:1;fill-rule:evenodd;stroke-width:1pt"
       sodipodi:nodetypes="czzzzzc"
       id="path1160"
       d="M 142.3483,121.13833 L 125.91043,133.59673 C 122.97154,135.82414 118.65484,134.11775 116.28283,133.77129 C 113.9108,133.42481 111.88528,131.87901 112.12516,132.33209 C 112.36503,132.78517 115.08349,135.71687 117.72203,136.48978 C 120.36055,137.26267 124.9543,138.89307 127.50953,136.15531 C 130.06477,133.41755 145.2267,123.53699 142.3483,121.13833 z " />
    <path
       style="fill:url(#linearGradient1404);fill-opacity:1;fill-rule:evenodd;stroke-width:1pt"
       sodipodi:nodetypes="cczc"
       id="path1403"
       d="M 132.11225,127.51984 C 135.31047,122.88242 120.11893,113.12786 109.08509,127.0401 C 110.20446,130.71805 116.80662,132.5992 121.82304,132.33547 C 126.68363,132.07993 129.50037,129.97181 132.11225,127.51984 z " />
    <path
       style="fill:url(#linearGradient1166);fill-opacity:1;fill-rule:evenodd;stroke-width:1.08551121"
       sodipodi:nodetypes="cccccccc"
       id="path1519"
       d="M 138.63464,112.68306 C 135.9958,113.22749 132.31739,114.43079 129.87534,116.38362 C 128.77009,115.68011 125.32759,114.5677 123.66767,113.84494 L 123.24572,114.10517 C 129.67287,117.23476 136.43512,117.91249 135.88192,122.87668 C 136.33675,122.98575 137.05589,123.09702 136.73191,122.38863 C 136.41775,118.90392 132.50587,117.23351 131.02697,116.81532 C 133.17224,114.26602 136.255,113.70892 138.63464,112.68306 z " />
    <path
       style="fill:url(#linearGradient1144);fill-opacity:1;fill-rule:evenodd;stroke-width:1pt"
       sodipodi:nodetypes="czzzzzzzz"
       id="path1143"
       d="M 18.891612,106.48414 C 17.978451,108.31614 19.173914,111.55774 22.263529,111.55774 L 105.0195,111.55774 C 106.66288,111.55774 109.13595,109.26672 108.39142,107.69215 L 101.42279,92.954575 C 100.88602,91.819403 99.685232,91.263378 98.500462,91.263378 L 28.108183,91.263369 C 27.131195,91.263369 26.0968,92.028994 25.635445,92.954575 L 18.891612,106.48414 z " />
  </g>
</svg>
