<?xml version="1.0" encoding="UTF-8" standalone="no"?>
<!-- Created with Inkscape (http://www.inkscape.org/) -->
<svg
   xmlns:dc="http://purl.org/dc/elements/1.1/"
   xmlns:cc="http://web.resource.org/cc/"
   xmlns:rdf="http://www.w3.org/1999/02/22-rdf-syntax-ns#"
   xmlns:svg="http://www.w3.org/2000/svg"
   xmlns="http://www.w3.org/2000/svg"
   xmlns:xlink="http://www.w3.org/1999/xlink"
   xmlns:sodipodi="http://sodipodi.sourceforge.net/DTD/sodipodi-0.dtd"
   xmlns:inkscape="http://www.inkscape.org/namespaces/inkscape"
   height="40"
   id="svg3235"
   version="1.0"
   width="40"
   x="0.00000000"
   y="0.00000000"
   sodipodi:version="0.32"
   inkscape:version="0.45.1"
   sodipodi:docname="mycomputer.svg"
   sodipodi:docbase="/usr/local/nagios/share/images/logos"
   inkscape:output_extension="org.inkscape.output.svg.inkscape">
  <sodipodi:namedview
     inkscape:window-height="734"
     inkscape:window-width="1280"
     inkscape:pageshadow="2"
     inkscape:pageopacity="0.0"
     guidetolerance="10.0"
     gridtolerance="10.0"
     objecttolerance="10.0"
     borderopacity="1.0"
     bordercolor="#666666"
     pagecolor="#ffffff"
     id="base"
     width="40px"
     height="40px"
     inkscape:zoom="10.266178"
     inkscape:cx="27.218386"
     inkscape:cy="26.023002"
     inkscape:window-x="0"
     inkscape:window-y="0"
     inkscape:current-layer="svg3235" />
  <metadata
     id="metadata3">
    <rdf:RDF>
      <cc:Work
         rdf:about="">
        <dc:title>computer-aj</dc:title>
        <dc:description />
        <dc:subject>
          <rdf:Bag>
            <rdf:li />
            <rdf:li>11</rdf:li>
            <rdf:li>hardware</rdf:li>
            <rdf:li>technology</rdf:li>
            <rdf:li>desktop</rdf:li>
            <rdf:li>computer</rdf:li>
            <rdf:li>monitor</rdf:li>
          </rdf:Bag>
        </dc:subject>
        <dc:publisher>
          <cc:Agent
             rdf:about="http://www.openclipart.org">
            <dc:title>AJ Ashton</dc:title>
          </cc:Agent>
        </dc:publisher>
        <dc:creator>
          <cc:Agent>
            <dc:title>AJ Ashton</dc:title>
          </cc:Agent>
        </dc:creator>
        <dc:rights>
          <cc:Agent>
            <dc:title>AJ Ashton</dc:title>
          </cc:Agent>
        </dc:rights>
        <dc:date />
        <dc:format>image/svg+xml</dc:format>
        <dc:type
           rdf:resource="http://purl.org/dc/dcmitype/StillImage" />
        <cc:license
           rdf:resource="http://web.resource.org/cc/PublicDomain" />
        <dc:language>en</dc:language>
      </cc:Work>
      <cc:License
         rdf:about="http://web.resource.org/cc/PublicDomain">
        <cc:permits
           rdf:resource="http://web.resource.org/cc/Reproduction" />
        <cc:permits
           rdf:resource="http://web.resource.org/cc/Distribution" />
        <cc:permits
           rdf:resource="http://web.resource.org/cc/DerivativeWorks" />
      </cc:License>
    </rdf:RDF>
  </metadata>
  <defs
     id="defs3237">
    <linearGradient
       id="linearGradient3000">
      <stop
         id="stop3001"
         offset="0"
         style="stop-color:#93c4b0;stop-opacity:0.69491524;" />
      <stop
         id="stop3002"
         offset="1.0000000"
         style="stop-color:#000000;stop-opacity:0.00000000;" />
    </linearGradient>
    <linearGradient
       id="linearGradient2991">
      <stop
         id="stop2992"
         offset="0.00000000"
         style="stop-color:#fff700;stop-opacity:1.0000000;" />
      <stop
         id="stop2993"
         offset="1.0000000"
         style="stop-color:#ff8e00;stop-opacity:1.0000000;" />
    </linearGradient>
    <linearGradient
       id="linearGradient2979">
      <stop
         id="stop2980"
         offset="0.00000000"
         style="stop-color:#dee5f4;stop-opacity:1.0000000;" />
      <stop
         id="stop2981"
         offset="1.0000000"
         style="stop-color:#747a92;stop-opacity:1.0000000;" />
    </linearGradient>
    <linearGradient
       id="linearGradient2984">
      <stop
         id="stop2985"
         offset="0.00000000"
         style="stop-color:#ffffff;stop-opacity:1.0000000;" />
      <stop
         id="stop2986"
         offset="1.0000000"
         style="stop-color:#ffffff;stop-opacity:0.00000000;" />
    </linearGradient>
    <linearGradient
       gradientTransform="scale(1.306617,0.765335)"
       gradientUnits="userSpaceOnUse"
       id="linearGradient1871"
       x1="59.820393"
       x2="61.891071"
       xlink:href="#linearGradient2984"
       y1="85.529762"
       y2="199.20726" />
    <radialGradient
       cx="48.594395"
       cy="1101.0496"
       fx="48.594395"
       fy="1101.0496"
       gradientTransform="scale(2.157585,0.463481)"
       gradientUnits="userSpaceOnUse"
       id="radialGradient1908"
       r="31.845842"
       xlink:href="#linearGradient3000" />
    <linearGradient
       gradientTransform="scale(0.977355,1.02317)"
       gradientUnits="userSpaceOnUse"
       id="linearGradient1917"
       x1="216.47505"
       x2="171.147"
       xlink:href="#linearGradient2979"
       y1="198.10153"
       y2="73.230858" />
    <linearGradient
       gradientTransform="scale(0.816232,1.225143)"
       gradientUnits="userSpaceOnUse"
       id="linearGradient1918"
       x1="146.52391"
       x2="139.02554"
       xlink:href="#linearGradient3000"
       y1="200.60095"
       y2="76.863205" />
    <linearGradient
       gradientTransform="matrix(0.877312,0,0,1.35409,-9.949676,-15.93499)"
       gradientUnits="userSpaceOnUse"
       id="linearGradient1919"
       x1="146.52391"
       x2="139.02554"
       xlink:href="#linearGradient3000"
       y1="200.60095"
       y2="76.863205" />
    <linearGradient
       gradientTransform="scale(0.847717,1.179639)"
       gradientUnits="userSpaceOnUse"
       id="linearGradient1920"
       x1="233.42126"
       x2="231.59184"
       xlink:href="#linearGradient2984"
       y1="50.769344"
       y2="147.83969" />
    <linearGradient
       gradientTransform="scale(1.598277,0.625674)"
       gradientUnits="userSpaceOnUse"
       id="linearGradient1921"
       x1="122.32335"
       x2="123.6971"
       xlink:href="#linearGradient2979"
       y1="128.38135"
       y2="160.49329" />
    <linearGradient
       gradientTransform="scale(1.606578,0.622441)"
       gradientUnits="userSpaceOnUse"
       id="linearGradient1922"
       x1="121.56956"
       x2="122.9226"
       xlink:href="#linearGradient2979"
       y1="158.70644"
       y2="190.33418" />
    <linearGradient
       gradientTransform="scale(0.768115,1.301889)"
       gradientUnits="userSpaceOnUse"
       id="linearGradient1923"
       x1="271.4765"
       x2="256.74417"
       xlink:href="#linearGradient3000"
       y1="166.56679"
       y2="125.2625" />
    <radialGradient
       cx="75.537109"
       cy="1017.3969"
       fx="75.537109"
       fy="1017.3969"
       gradientTransform="scale(1.907187,0.524332)"
       gradientUnits="userSpaceOnUse"
       id="radialGradient1955"
       r="48.549095"
       xlink:href="#linearGradient3000" />
    <linearGradient
       gradientTransform="scale(1.905684,0.524746)"
       gradientUnits="userSpaceOnUse"
       id="linearGradient1956"
       x1="80.622375"
       x2="112.30373"
       xlink:href="#linearGradient2991"
       y1="1007.7199"
       y2="1007.7199" />
    <linearGradient
       gradientTransform="scale(1.905684,0.524746)"
       gradientUnits="userSpaceOnUse"
       id="linearGradient1957"
       x1="111.28992"
       x2="89.493149"
       xlink:href="#linearGradient2979"
       y1="991.43304"
       y2="1019.9909" />
    <linearGradient
       gradientTransform="scale(1.92902,0.518398)"
       gradientUnits="userSpaceOnUse"
       id="linearGradient1958"
       x1="97.777306"
       x2="91.326256"
       xlink:href="#linearGradient2991"
       y1="1036.9353"
       y2="1005.4645" />
    <linearGradient
       gradientTransform="scale(1.781362,0.561368)"
       gradientUnits="userSpaceOnUse"
       id="linearGradient1959"
       x1="95.44516"
       x2="65.910606"
       xlink:href="#linearGradient2979"
       y1="438.16623"
       y2="390.88043" />
    <linearGradient
       gradientTransform="scale(1.964736,0.508974)"
       gradientUnits="userSpaceOnUse"
       id="linearGradient1960"
       x1="52.588963"
       x2="87.982124"
       xlink:href="#linearGradient2984"
       y1="404.27759"
       y2="522.2951" />
    <linearGradient
       gradientTransform="scale(1.337132,0.747869)"
       gradientUnits="userSpaceOnUse"
       id="linearGradient1961"
       x1="177.20853"
       x2="180.98833"
       xlink:href="#linearGradient2979"
       y1="270.24692"
       y2="298.52386" />
    <linearGradient
       gradientTransform="scale(1.369306,0.730297)"
       gradientUnits="userSpaceOnUse"
       id="linearGradient1962"
       x1="129.28658"
       x2="129.54399"
       xlink:href="#linearGradient2984"
       y1="704.06665"
       y2="716.89569" />
    <radialGradient
       cx="48.594395"
       cy="1101.0496"
       fx="48.594395"
       fy="1101.0496"
       gradientTransform="scale(2.157585,0.463481)"
       gradientUnits="userSpaceOnUse"
       id="radialGradient1971"
       r="31.845842"
       xlink:href="#linearGradient3000" />
    <linearGradient
       gradientUnits="userSpaceOnUse"
       id="linearGradient1981"
       x1="85.997665"
       x2="79.453842"
       xlink:href="#linearGradient2979"
       y1="210.65846"
       y2="172.33038" />
    <linearGradient
       gradientTransform="matrix(1.015953,0,0,0.984297,-1.875,0.625)"
       gradientUnits="userSpaceOnUse"
       id="linearGradient1982"
       x1="79.259674"
       x2="69.298241"
       xlink:href="#linearGradient2979"
       y1="176.59102"
       y2="79.391563" />
    <linearGradient
       gradientTransform="scale(1.015805,0.98444)"
       gradientUnits="userSpaceOnUse"
       id="linearGradient1983"
       x1="131.51102"
       x2="99.187386"
       xlink:href="#linearGradient2979"
       y1="65.556458"
       y2="100.41222" />
    <linearGradient
       gradientTransform="scale(1.015953,0.984297)"
       gradientUnits="userSpaceOnUse"
       id="linearGradient1984"
       x1="79.259674"
       x2="69.298241"
       xlink:href="#linearGradient2979"
       y1="176.59102"
       y2="79.391563" />
    <linearGradient
       gradientTransform="scale(1.046727,0.955359)"
       gradientUnits="userSpaceOnUse"
       id="linearGradient1985"
       x1="52.874111"
       x2="48.997128"
       xlink:href="#linearGradient2991"
       y1="167.85587"
       y2="77.001305" />
    <linearGradient
       gradientTransform="scale(2.284372,0.437757)"
       gradientUnits="userSpaceOnUse"
       id="linearGradient1986"
       x1="44.634335"
       x2="39.178116"
       xlink:href="#linearGradient2984"
       y1="462.63409"
       y2="437.71384" />
    <linearGradient
       gradientTransform="matrix(1.350628,0,0,0.811804,-29.70751,-1.423843)"
       gradientUnits="userSpaceOnUse"
       id="linearGradient1992"
       x1="-71.758919"
       x2="262.79605"
       xlink:href="#linearGradient2979"
       y1="505.53708"
       y2="-90.461502" />
    <linearGradient
       gradientTransform="scale(1.289859,0.775278)"
       gradientUnits="userSpaceOnUse"
       id="linearGradient1994"
       x1="203.06593"
       x2="-95.652382"
       xlink:href="#linearGradient2984"
       y1="-290.19931"
       y2="637.12531" />
    <radialGradient
       inkscape:collect="always"
       xlink:href="#linearGradient3000"
       id="radialGradient3244"
       gradientUnits="userSpaceOnUse"
       gradientTransform="matrix(0.9155887,0,0,0.8152064,-9.5471752,34.668239)"
       cx="157.05746"
       cy="143.81609"
       fx="157.05746"
       fy="143.81609"
       r="148.15256" />
    <radialGradient
       inkscape:collect="always"
       xlink:href="#linearGradient3000"
       id="radialGradient3246"
       gradientUnits="userSpaceOnUse"
       gradientTransform="scale(2.157585,0.463481)"
       cx="48.594395"
       cy="1101.0496"
       fx="48.594395"
       fy="1101.0496"
       r="31.845842" />
    <radialGradient
       inkscape:collect="always"
       xlink:href="#linearGradient3000"
       id="radialGradient3248"
       gradientUnits="userSpaceOnUse"
       gradientTransform="scale(2.157585,0.463481)"
       cx="48.594395"
       cy="1101.0496"
       fx="48.594395"
       fy="1101.0496"
       r="31.845842" />
    <radialGradient
       inkscape:collect="always"
       xlink:href="#linearGradient3000"
       id="radialGradient3250"
       gradientUnits="userSpaceOnUse"
       gradientTransform="scale(1.907187,0.524332)"
       cx="75.537109"
       cy="1017.3969"
       fx="75.537109"
       fy="1017.3969"
       r="48.549095" />
    <linearGradient
       inkscape:collect="always"
       xlink:href="#linearGradient2991"
       id="linearGradient3252"
       gradientUnits="userSpaceOnUse"
       gradientTransform="scale(1.905684,0.524746)"
       x1="80.622375"
       y1="1007.7199"
       x2="112.30373"
       y2="1007.7199" />
    <linearGradient
       inkscape:collect="always"
       xlink:href="#linearGradient2979"
       id="linearGradient3254"
       gradientUnits="userSpaceOnUse"
       gradientTransform="scale(1.905684,0.524746)"
       x1="111.28992"
       y1="991.43304"
       x2="89.493149"
       y2="1019.9909" />
    <linearGradient
       inkscape:collect="always"
       xlink:href="#linearGradient2991"
       id="linearGradient3256"
       gradientUnits="userSpaceOnUse"
       gradientTransform="scale(1.92902,0.518398)"
       x1="97.777306"
       y1="1036.9353"
       x2="91.326256"
       y2="1005.4645" />
    <linearGradient
       inkscape:collect="always"
       xlink:href="#linearGradient2979"
       id="linearGradient3258"
       gradientUnits="userSpaceOnUse"
       gradientTransform="scale(1.781362,0.561368)"
       x1="95.44516"
       y1="438.16623"
       x2="65.910606"
       y2="390.88043" />
    <linearGradient
       inkscape:collect="always"
       xlink:href="#linearGradient2984"
       id="linearGradient3260"
       gradientUnits="userSpaceOnUse"
       gradientTransform="scale(1.964736,0.508974)"
       x1="52.588963"
       y1="404.27759"
       x2="87.982124"
       y2="522.2951" />
    <linearGradient
       inkscape:collect="always"
       xlink:href="#linearGradient2979"
       id="linearGradient3262"
       gradientUnits="userSpaceOnUse"
       gradientTransform="scale(1.337132,0.747869)"
       x1="177.20853"
       y1="270.24692"
       x2="180.98833"
       y2="298.52386" />
    <linearGradient
       inkscape:collect="always"
       xlink:href="#linearGradient2984"
       id="linearGradient3264"
       gradientUnits="userSpaceOnUse"
       gradientTransform="scale(1.369306,0.730297)"
       x1="129.28658"
       y1="704.06665"
       x2="129.54399"
       y2="716.89569" />
    <linearGradient
       inkscape:collect="always"
       xlink:href="#linearGradient2979"
       id="linearGradient3266"
       gradientUnits="userSpaceOnUse"
       gradientTransform="scale(0.977355,1.02317)"
       x1="216.47505"
       y1="198.10153"
       x2="171.147"
       y2="73.230858" />
    <linearGradient
       inkscape:collect="always"
       xlink:href="#linearGradient3000"
       id="linearGradient3268"
       gradientUnits="userSpaceOnUse"
       gradientTransform="scale(0.816232,1.225143)"
       x1="146.52391"
       y1="200.60095"
       x2="139.02554"
       y2="76.863205" />
    <linearGradient
       inkscape:collect="always"
       xlink:href="#linearGradient3000"
       id="linearGradient3270"
       gradientUnits="userSpaceOnUse"
       gradientTransform="matrix(0.877312,0,0,1.35409,-9.949676,-15.93499)"
       x1="146.52391"
       y1="200.60095"
       x2="139.02554"
       y2="76.863205" />
    <linearGradient
       inkscape:collect="always"
       xlink:href="#linearGradient2984"
       id="linearGradient3272"
       gradientUnits="userSpaceOnUse"
       gradientTransform="scale(0.847717,1.179639)"
       x1="233.42126"
       y1="50.769344"
       x2="231.59184"
       y2="147.83969" />
    <linearGradient
       inkscape:collect="always"
       xlink:href="#linearGradient2979"
       id="linearGradient3274"
       gradientUnits="userSpaceOnUse"
       gradientTransform="scale(1.598277,0.625674)"
       x1="122.32335"
       y1="128.38135"
       x2="123.6971"
       y2="160.49329" />
    <linearGradient
       inkscape:collect="always"
       xlink:href="#linearGradient2979"
       id="linearGradient3276"
       gradientUnits="userSpaceOnUse"
       gradientTransform="scale(1.606578,0.622441)"
       x1="121.56956"
       y1="158.70644"
       x2="122.9226"
       y2="190.33418" />
    <linearGradient
       inkscape:collect="always"
       xlink:href="#linearGradient3000"
       id="linearGradient3278"
       gradientUnits="userSpaceOnUse"
       gradientTransform="scale(0.768115,1.301889)"
       x1="271.4765"
       y1="166.56679"
       x2="256.74417"
       y2="125.2625" />
    <linearGradient
       inkscape:collect="always"
       xlink:href="#linearGradient2979"
       id="linearGradient3280"
       gradientUnits="userSpaceOnUse"
       x1="85.997665"
       y1="210.65846"
       x2="79.453842"
       y2="172.33038" />
    <linearGradient
       inkscape:collect="always"
       xlink:href="#linearGradient2979"
       id="linearGradient3282"
       gradientUnits="userSpaceOnUse"
       gradientTransform="matrix(1.015953,0,0,0.984297,-1.875,0.625)"
       x1="79.259674"
       y1="176.59102"
       x2="69.298241"
       y2="79.391563" />
    <linearGradient
       inkscape:collect="always"
       xlink:href="#linearGradient2979"
       id="linearGradient3284"
       gradientUnits="userSpaceOnUse"
       gradientTransform="scale(1.015805,0.98444)"
       x1="131.51102"
       y1="65.556458"
       x2="99.187386"
       y2="100.41222" />
    <linearGradient
       inkscape:collect="always"
       xlink:href="#linearGradient2979"
       id="linearGradient3286"
       gradientUnits="userSpaceOnUse"
       gradientTransform="scale(1.015953,0.984297)"
       x1="79.259674"
       y1="176.59102"
       x2="69.298241"
       y2="79.391563" />
    <linearGradient
       inkscape:collect="always"
       xlink:href="#linearGradient2991"
       id="linearGradient3288"
       gradientUnits="userSpaceOnUse"
       gradientTransform="scale(1.046727,0.955359)"
       x1="52.874111"
       y1="167.85587"
       x2="48.997128"
       y2="77.001305" />
    <linearGradient
       inkscape:collect="always"
       xlink:href="#linearGradient2984"
       id="linearGradient3290"
       gradientUnits="userSpaceOnUse"
       gradientTransform="scale(2.284372,0.437757)"
       x1="44.634335"
       y1="462.63409"
       x2="39.178116"
       y2="437.71384" />
    <linearGradient
       inkscape:collect="always"
       xlink:href="#linearGradient2984"
       id="linearGradient3292"
       gradientUnits="userSpaceOnUse"
       gradientTransform="scale(1.306617,0.765335)"
       x1="59.820393"
       y1="85.529762"
       x2="61.891071"
       y2="199.20726" />
  </defs>
  <g
     id="g3209"
     transform="matrix(0.1469472,0,0,0.1657396,0.2821657,-5.2096362)">
    <path
       style="fill:url(#radialGradient3244);fill-opacity:1;fill-rule:evenodd;stroke:none;stroke-width:0.19681364;stroke-linecap:butt;stroke-linejoin:miter;stroke-miterlimit:4;stroke-opacity:1"
       id="path2227"
       d="M 269.88778,184.41651 C 268.93672,248.63865 207.42257,286.14934 132.50242,268.19275 C 57.582248,250.23624 -2.3643819,183.61424 -1.3820296,119.39961 C -0.43097596,55.177481 61.083188,17.666741 136.00335,35.623316 C 210.92352,53.579891 270.87012,120.2019 269.88778,184.41651 L 269.88778,184.41651 z " />
    <path
       transform="matrix(0.940119,-0.124165,0.376587,0.821327,-213.4198,-213.7047)"
       style="fill:url(#radialGradient3246);fill-opacity:1;fill-rule:evenodd;stroke:none;stroke-width:0.37295571;stroke-linecap:butt;stroke-linejoin:miter;stroke-miterlimit:4;stroke-opacity:1"
       id="path2998"
       d="M 173.55663,510.3158 C 173.56456,518.4687 142.79968,525.07883 104.84653,525.07883 C 66.893375,525.07883 36.128491,518.4687 36.136421,510.3158 C 36.128491,502.1629 66.893375,495.55277 104.84653,495.55277 C 142.79968,495.55277 173.56456,502.1629 173.55663,510.3158 L 173.55663,510.3158 z " />
    <path
       transform="matrix(1.711735,0.102817,-0.102817,1.711735,-8.017553,-689.7307)"
       style="fill:url(#radialGradient3248);fill-opacity:1;fill-rule:evenodd;stroke:none;stroke-width:0.19681364;stroke-linecap:butt;stroke-linejoin:miter;stroke-miterlimit:4;stroke-opacity:1"
       id="path3009"
       d="M 173.55663,510.3158 C 173.56456,518.4687 142.79968,525.07883 104.84653,525.07883 C 66.893375,525.07883 36.128491,518.4687 36.136421,510.3158 C 36.128491,502.1629 66.893375,495.55277 104.84653,495.55277 C 142.79968,495.55277 173.56456,502.1629 173.55663,510.3158 L 173.55663,510.3158 z " />
    <g
       transform="matrix(0.8442901,0,0,0.818546,-3.9953152,-7.7938862)"
       id="g1942">
      <path
         style="fill:none;fill-opacity:0.75;fill-rule:evenodd;stroke:#000000;stroke-width:1.875;stroke-linecap:butt;stroke-linejoin:round;stroke-miterlimit:4;stroke-opacity:0.19607843"
         id="path1941"
         d="M 223.80016,284.71299 C 212.28747,283.7536 204.61235,288.31068 194.05907,288.07085 C 183.50578,287.831 173.2723,285.35258 160.48045,285.19268 C 147.6886,285.03279 141.13277,292.94773 119.2267,288.55054 C 114.10756,287.52298 134.17719,281.27517 129.77997,277.03787 C 125.38276,272.80056 102.27747,273.12036 89.0059,264.0861 C 83.433558,260.29287 100.51859,256.25107 101.47798,248.25617" />
      <path
         style="fill:none;fill-opacity:0.75;fill-rule:evenodd;stroke:#000000;stroke-width:1.875;stroke-linecap:butt;stroke-linejoin:round;stroke-miterlimit:4;stroke-opacity:0.19607843"
         id="path1940"
         d="M 81.81048,305.81956 C 74.135374,302.7815 51.676082,297.00609 49.670926,293.82719 C 46.393013,288.6305 80.370666,292.60446 61.663298,283.2739 C 53.558269,279.2314 22.328324,281.11526 27.604963,277.51755 C 32.881619,273.91984 79.176877,270.35622 90.6096,265.07958 C 102.04233,259.80295 96.259524,250.45596 99.593287,242.46575" />
      <path
         transform="matrix(1.606958,-0.180571,0.108339,1.105737,-118.8948,-254.5933)"
         style="fill:url(#radialGradient3250);fill-opacity:1;fill-rule:evenodd;stroke:none;stroke-width:0.25180706;stroke-linecap:butt;stroke-linejoin:miter;stroke-miterlimit:4;stroke-opacity:1"
         id="path3228"
         d="M 236.65561,533.45416 C 236.65561,547.51305 195.20067,558.91002 144.0634,558.91002 C 92.926135,558.91002 51.471191,547.51305 51.471191,533.45416 C 51.471191,519.39527 92.926135,507.9983 144.0634,507.9983 C 195.20067,507.9983 236.65561,519.39527 236.65561,533.45416 z " />
      <path
         transform="matrix(1.71482,0,0,1.71482,-61.76929,-610.3221)"
         style="fill:url(#linearGradient3252);fill-opacity:1;fill-rule:evenodd;stroke:url(#linearGradient3254);stroke-width:1.09340906;stroke-linecap:round;stroke-linejoin:bevel;stroke-miterlimit:4;stroke-opacity:1"
         id="path3141"
         d="M 187.375,521.03125 L 154.1875,525.375 L 180.375,536.5625 L 213.46875,528.84375 L 187.375,521.03125 z " />
      <path
         transform="matrix(1.71482,0,0,1.71482,-61.76929,-611.731)"
         style="fill:url(#linearGradient3256);fill-opacity:1;fill-rule:evenodd;stroke:#000000;stroke-width:0.54670453;stroke-linecap:round;stroke-linejoin:bevel;stroke-miterlimit:4;stroke-opacity:1"
         id="path3140"
         d="M 187.375,521.03125 L 154.1875,525.375 L 180.375,536.5625 L 213.46875,528.84375 L 187.375,521.03125 z " />
      <path
         transform="translate(0,75)"
         style="fill:none;fill-opacity:0.75;fill-rule:evenodd;stroke:#484c5f;stroke-width:1.875;stroke-linecap:butt;stroke-linejoin:round;stroke-miterlimit:4;stroke-opacity:1"
         id="path3230"
         d="M 225.56792,208.82911 C 214.05523,207.86972 206.38011,212.4268 195.82683,212.18697 C 185.27354,211.94712 175.04006,209.4687 162.24821,209.3088 C 149.45636,209.14891 142.90053,217.06385 120.99446,212.66666 C 115.87532,211.6391 135.94495,205.39129 131.54773,201.15399 C 127.15052,196.91668 104.04523,197.23648 90.773666,188.20222 C 85.201324,184.40899 102.28635,180.36719 103.24574,172.37229" />
      <path
         transform="translate(0,75)"
         style="fill:none;fill-opacity:0.75;fill-rule:evenodd;stroke:#484c5f;stroke-width:1.875;stroke-linecap:butt;stroke-linejoin:round;stroke-miterlimit:4;stroke-opacity:1"
         id="path3231"
         d="M 83.578246,229.93568 C 75.90314,226.89762 53.443848,221.12221 51.438692,217.94331 C 48.160779,212.74662 82.138432,216.72058 63.431064,207.39002 C 55.326035,203.34752 24.09609,205.23138 29.372729,201.63367 C 34.649385,198.03596 80.944643,194.47234 92.377366,189.1957 C 103.81009,183.91907 98.02729,174.57208 101.36105,166.58187" />
      <path
         transform="translate(0,75)"
         style="fill:url(#linearGradient3258);fill-opacity:1;fill-rule:evenodd;stroke:#000000;stroke-width:0.9375;stroke-linecap:butt;stroke-linejoin:miter;stroke-miterlimit:4;stroke-opacity:1"
         id="path3010"
         d="M 64.332013,228.80006 L 66.07758,245.74808 L 104.14751,265.2788 L 229.7783,242.95796 L 230.73004,234.96681 L 179.05718,213.48313 L 64.332013,228.80006 z " />
      <path
         transform="translate(0,75)"
         style="fill:#000000;fill-opacity:0.19607843;fill-rule:evenodd;stroke:none;stroke-width:0.33750001;stroke-linecap:butt;stroke-linejoin:miter;stroke-miterlimit:4;stroke-opacity:1"
         id="path3013"
         d="M 66.307606,229.92236 L 67.744591,244.3762 L 104.32654,263.26882 L 228.31443,241.39634 L 228.8257,236.08479 L 104.45435,256.06195 L 66.307606,229.92236 z " />
      <path
         transform="translate(0,75)"
         style="fill:url(#linearGradient3260);fill-opacity:1;fill-rule:evenodd;stroke:none;stroke-width:0.33750001;stroke-linecap:butt;stroke-linejoin:miter;stroke-miterlimit:4;stroke-opacity:1"
         id="path3014"
         d="M 70.98008,230.35875 L 102.40022,250.43272 C 104.29123,226.57669 218.77104,242.43223 204.51562,226.86763 L 179.20496,215.52147 L 70.98008,230.35875 z " />
      <path
         transform="translate(0,75)"
         style="fill:url(#linearGradient3262);fill-opacity:1;fill-rule:evenodd;stroke:#000000;stroke-width:0.9375;stroke-linecap:butt;stroke-linejoin:miter;stroke-miterlimit:4;stroke-opacity:1"
         id="path3135"
         d="M 260.74545,220.12719 C 254.28771,220.70079 248.99358,226.62915 235.69608,220.6369 C 222.73487,214.79621 223.78797,215.97811 224.46399,212.68891 C 225.05642,209.80642 229.06168,201.41171 243.93428,201.9238 C 258.72831,202.43317 267.60257,219.5181 260.74545,220.12719 z " />
      <path
         transform="matrix(1.71482,0,0,1.71482,-61.76929,-606.9641)"
         style="fill:url(#linearGradient3264);fill-opacity:1;fill-rule:evenodd;stroke:none;stroke-width:0.19681366;stroke-linecap:butt;stroke-linejoin:miter;stroke-miterlimit:4;stroke-opacity:1"
         id="path3233"
         d="M 183.22627,519.18774 C 183.22627,521.04166 180.40833,522.54456 176.93224,522.54456 C 173.45614,522.54456 170.6382,521.04166 170.6382,519.18774 C 170.6382,517.33382 173.45614,515.83092 176.93224,515.83092 C 180.40833,515.83092 183.22627,517.33382 183.22627,519.18774 z " />
    </g>
    <g
       transform="translate(0,75)"
       id="g1909">
      <path
         transform="translate(0,-75)"
         style="fill:url(#linearGradient3266);fill-opacity:1;fill-rule:evenodd;stroke:#000000;stroke-width:0.9375;stroke-linecap:butt;stroke-linejoin:round;stroke-miterlimit:4;stroke-opacity:1"
         id="path352"
         d="M 168.65587,72.330023 L 225.20016,76.208843 L 221.7842,198.54725 L 169.31652,206.3112 L 98.77599,189.11266 L 97.260299,80.427198 L 168.65587,72.330023 z " />
      <path
         transform="translate(0,-75)"
         style="fill:url(#linearGradient3268);fill-opacity:1;fill-rule:evenodd;stroke:none;stroke-width:0.33750001;stroke-linecap:butt;stroke-linejoin:miter;stroke-miterlimit:4;stroke-opacity:1"
         id="path353"
         d="M 102.89328,117.91922 L 103.78771,184.23132 L 163.02825,196.53147 L 162.56305,110.47038 C 143.29813,93.578327 122.7832,134.18627 102.89328,117.91922 z " />
      <path
         transform="translate(0,-75)"
         style="fill:url(#linearGradient3270);fill-opacity:1;fill-rule:evenodd;stroke:none;stroke-width:0.33750001;stroke-linecap:butt;stroke-linejoin:miter;stroke-miterlimit:4;stroke-opacity:1"
         id="path1853"
         d="M 100.64328,114.39526 L 101.60464,187.68673 L 165.27825,201.28147 L 164.77824,106.16243 C 144.07169,87.49248 122.0216,132.37442 100.64328,114.39526 z " />
      <path
         transform="translate(0,-75)"
         style="fill:url(#linearGradient3272);fill-opacity:1;fill-rule:evenodd;stroke:none;stroke-width:0.33750001;stroke-linecap:butt;stroke-linejoin:miter;stroke-miterlimit:4;stroke-opacity:1"
         id="path2987"
         d="M 171.34995,74.897795 L 170.47718,148.07984 C 199.80839,115.49146 198.7677,162.41452 220.58724,143.69744 L 223.20555,78.025935 L 171.34995,74.897795 z " />
      <path
         transform="translate(0,-75)"
         style="fill:url(#linearGradient3274);fill-opacity:1;fill-rule:evenodd;stroke:#000000;stroke-width:1.25;stroke-linecap:butt;stroke-linejoin:bevel;stroke-miterlimit:4;stroke-opacity:0.39215686"
         id="path3005"
         d="M 177.48285,82.517255 L 177.04647,96.099986 L 218.00121,97.796509 L 218.02029,84.889915 L 177.48285,82.517255 z " />
      <path
         transform="translate(0,-75)"
         style="fill:url(#linearGradient3276);fill-opacity:1;fill-rule:evenodd;stroke:#000000;stroke-width:1.25;stroke-linecap:butt;stroke-linejoin:bevel;stroke-miterlimit:4;stroke-opacity:0.39215686"
         id="path3008"
         d="M 177.47737,100.94619 L 177.04098,115.53709 L 217.59414,115.8921 L 217.58917,102.32423 L 177.47737,100.94619 z " />
      <path
         transform="matrix(1.1995,0,0,1,-43.46294,-75)"
         style="fill:url(#linearGradient3278);fill-opacity:1;stroke:none;stroke-width:1pt;stroke-linecap:butt;stroke-linejoin:miter;stroke-opacity:1"
         id="path1823"
         d="M 217.5,164.375 C 217.5,181.6339 209.24525,195.625 199.0625,195.625 C 188.87975,195.625 180.625,181.6339 180.625,164.375 C 180.625,147.1161 188.87975,133.125 199.0625,133.125 C 209.24525,133.125 217.5,147.1161 217.5,164.375 z " />
    </g>
    <g
       transform="translate(150,0)"
       id="g1972">
      <path
         transform="translate(-150,0)"
         style="fill:url(#linearGradient3280);fill-opacity:1;fill-rule:evenodd;stroke:#000000;stroke-width:0.9375;stroke-linecap:butt;stroke-linejoin:round;stroke-miterlimit:4;stroke-opacity:1"
         id="path354"
         d="M 68.78151,152.51618 L 57.48664,192.42874 L 57.48664,198.50488 L 81.791181,210.65716 L 118.24798,206.8679 L 118.24798,200.79176 L 85.772016,191.81631 L 93.943443,149.8958 L 68.78151,152.51618 z " />
      <path
         transform="translate(-150,0)"
         style="fill:#000000;fill-opacity:0.31097562;fill-rule:evenodd;stroke:none;stroke-width:0.33750001;stroke-linecap:butt;stroke-linejoin:miter;stroke-miterlimit:4;stroke-opacity:1"
         id="path355"
         d="M 68.77909,153.94752 L 73.98479,155.4786 L 62.65473,194.36829 L 80.721596,202.63617 L 81.027811,209.06673 L 58.06146,198.04291 L 58.36768,192.22476 L 68.77909,153.94752 z " />
      <path
         transform="translate(-150,0)"
         style="fill:url(#linearGradient3282);fill-opacity:1;fill-rule:evenodd;stroke:url(#linearGradient3284);stroke-width:2;stroke-linecap:butt;stroke-linejoin:round;stroke-miterlimit:4;stroke-opacity:1"
         id="path1828"
         d="M 24.2993,63.8626 L 133.66972,66.312341 L 139.74585,163.53049 L 30.37544,175.68275 L 24.2993,63.8626 z " />
      <path
         transform="translate(-150,0)"
         style="fill:url(#linearGradient3286);fill-opacity:1;fill-rule:evenodd;stroke:#000000;stroke-width:0.9375;stroke-linecap:butt;stroke-linejoin:round;stroke-miterlimit:4;stroke-opacity:1"
         id="path356"
         d="M 26.1743,63.2376 L 135.54472,65.687341 L 141.62085,162.90549 L 32.25044,175.05775 L 26.1743,63.2376 z " />
      <path
         transform="translate(-150,0)"
         style="fill:url(#linearGradient3288);fill-opacity:1;fill-rule:evenodd;stroke:#000000;stroke-width:1.875;stroke-linecap:round;stroke-linejoin:round;stroke-miterlimit:4;stroke-opacity:0.19607843"
         id="path357"
         d="M 35.99156,72.467003 L 41.23867,160.10315 L 132.18841,152.60794 L 128.69035,73.043542 L 35.99156,72.467003 z " />
      <path
         transform="translate(-150,0)"
         style="fill:url(#linearGradient3290);fill-opacity:1;fill-rule:evenodd;stroke:none;stroke-width:0.33750001;stroke-linecap:butt;stroke-linejoin:miter;stroke-miterlimit:4;stroke-opacity:1"
         id="path361"
         d="M 64.18582,194.36829 L 84.089983,193.14341 L 112.12441,200.63026 L 82.547108,202.32994 L 64.18582,194.36829 z " />
      <path
         transform="translate(-150,0)"
         style="fill:url(#linearGradient3292);fill-opacity:1;fill-rule:evenodd;stroke:none;stroke-width:0.33750001;stroke-linecap:butt;stroke-linejoin:miter;stroke-miterlimit:4;stroke-opacity:1"
         id="path3003"
         d="M 41.63693,76.16683 L 44.10554,124.30449 C 56.65425,96.738482 120.42637,148.78477 126.18643,111.96151 L 124.335,77.401123 L 41.63693,76.16683 z " />
      <rect
         y="33.75"
         x="-85.625"
         width="6.875"
         style="fill:none;fill-opacity:0.75;stroke:none;stroke-width:2;stroke-linecap:butt;stroke-linejoin:miter;stroke-miterlimit:4;stroke-opacity:1"
         ry="1.875"
         rx="6.165308"
         id="rect1924"
         height="1.875" />
    </g>
  </g>
</svg>
