<?xml version="1.0" encoding="UTF-8" standalone="no"?>
<!-- Created with Inkscape (http://www.inkscape.org/) -->
<svg
   xmlns:dc="http://purl.org/dc/elements/1.1/"
   xmlns:cc="http://web.resource.org/cc/"
   xmlns:rdf="http://www.w3.org/1999/02/22-rdf-syntax-ns#"
   xmlns:svg="http://www.w3.org/2000/svg"
   xmlns="http://www.w3.org/2000/svg"
   xmlns:xlink="http://www.w3.org/1999/xlink"
   xmlns:sodipodi="http://sodipodi.sourceforge.net/DTD/sodipodi-0.dtd"
   xmlns:inkscape="http://www.inkscape.org/namespaces/inkscape"
   height="40"
   id="svg7877"
   inkscape:version="0.45.1"
   sodipodi:docbase="/usr/local/nagios/share/images/logos"
   sodipodi:docname="server.svg"
   sodipodi:version="0.32"
   width="40"
   inkscape:output_extension="org.inkscape.output.svg.inkscape"
   version="1.0">
  <metadata
     id="metadata3">
    <rdf:RDF>
      <cc:Work
         rdf:about="">
        <dc:title>server</dc:title>
        <dc:description />
        <dc:subject>
          <rdf:Bag>
            <rdf:li>mid</rdf:li>
            <rdf:li>tower</rdf:li>
            <rdf:li>desktop</rdf:li>
            <rdf:li>computer</rdf:li>
          </rdf:Bag>
        </dc:subject>
        <dc:publisher>
          <cc:Agent
             rdf:about="http://www.openclipart.org/">
            <dc:title>Open Clip Art Library</dc:title>
          </cc:Agent>
        </dc:publisher>
        <dc:creator>
          <cc:Agent>
            <dc:title>Olivier Boyer</dc:title>
          </cc:Agent>
        </dc:creator>
        <dc:rights>
          <cc:Agent>
            <dc:title>Olivier Boyer</dc:title>
          </cc:Agent>
        </dc:rights>
        <dc:date />
        <dc:format>image/svg+xml</dc:format>
        <dc:type
           rdf:resource="http://purl.org/dc/dcmitype/StillImage" />
        <cc:license
           rdf:resource="http://web.resource.org/cc/PublicDomain" />
        <dc:language>en</dc:language>
      </cc:Work>
      <cc:License
         rdf:about="http://web.resource.org/cc/PublicDomain">
        <cc:permits
           rdf:resource="http://web.resource.org/cc/Reproduction" />
        <cc:permits
           rdf:resource="http://web.resource.org/cc/Distribution" />
        <cc:permits
           rdf:resource="http://web.resource.org/cc/DerivativeWorks" />
      </cc:License>
    </rdf:RDF>
  </metadata>
  <defs
     id="defs3">
    <linearGradient
       gradientUnits="userSpaceOnUse"
       id="linearGradient3432"
       inkscape:collect="always"
       x1="-56.230511"
       x2="-80.301514"
       xlink:href="#linearGradient3376"
       y1="692.08044"
       y2="657.42157" />
    <linearGradient
       id="linearGradient3290">
      <stop
         id="stop3291"
         offset="0.0000000"
         style="stop-color:#fb0000;stop-opacity:1.0000000;" />
      <stop
         id="stop3292"
         offset="1.0000000"
         style="stop-color:#bc2323;stop-opacity:1.0000000;" />
    </linearGradient>
    <radialGradient
       cx="-73.978615"
       cy="664.96509"
       fx="-73.827393"
       fy="664.96503"
       gradientUnits="userSpaceOnUse"
       id="radialGradient3431"
       inkscape:collect="always"
       r="22.582869"
       xlink:href="#linearGradient3290" />
    <linearGradient
       gradientUnits="userSpaceOnUse"
       id="linearGradient3430"
       inkscape:collect="always"
       x1="-56.230511"
       x2="-80.301514"
       xlink:href="#linearGradient3376"
       y1="692.08044"
       y2="657.42157" />
    <linearGradient
       id="linearGradient3499">
      <stop
         id="stop3500"
         offset="0.0000000"
         style="stop-color:#adbe56;stop-opacity:1.0000000;" />
      <stop
         id="stop3501"
         offset="1.0000000"
         style="stop-color:#46630c;stop-opacity:1.0000000;" />
    </linearGradient>
    <radialGradient
       cx="-75.833542"
       cy="663.60602"
       fx="-75.833542"
       fy="663.60602"
       gradientUnits="userSpaceOnUse"
       id="radialGradient3429"
       inkscape:collect="always"
       r="33.866852"
       xlink:href="#linearGradient3499" />
    <linearGradient
       gradientUnits="userSpaceOnUse"
       id="linearGradient3428"
       inkscape:collect="always"
       x1="-56.230511"
       x2="-80.301514"
       xlink:href="#linearGradient3376"
       y1="692.08044"
       y2="657.42157" />
    <linearGradient
       gradientUnits="userSpaceOnUse"
       id="linearGradient3427"
       inkscape:collect="always"
       x1="-83.203087"
       x2="-51.446705"
       xlink:href="#linearGradient3363"
       y1="652.68365"
       y2="696.04785" />
    <linearGradient
       gradientUnits="userSpaceOnUse"
       id="linearGradient3426"
       inkscape:collect="always"
       x1="-56.230511"
       x2="-80.301514"
       xlink:href="#linearGradient3376"
       y1="692.08044"
       y2="657.42157" />
    <linearGradient
       gradientUnits="userSpaceOnUse"
       id="linearGradient3425"
       inkscape:collect="always"
       x1="-83.203087"
       x2="-51.446705"
       xlink:href="#linearGradient3363"
       y1="652.68365"
       y2="696.04785" />
    <linearGradient
       gradientTransform="matrix(1.748538,0,0,0.578359,-3.482923,34.77842)"
       gradientUnits="userSpaceOnUse"
       id="linearGradient3424"
       inkscape:collect="always"
       x1="-56.337173"
       x2="-77.882248"
       xlink:href="#linearGradient3376"
       y1="1418.2798"
       y2="1394.0889" />
    <linearGradient
       gradientTransform="matrix(1.748541,0,0,0.578358,-3.482923,34.77842)"
       gradientUnits="userSpaceOnUse"
       id="linearGradient3423"
       inkscape:collect="always"
       x1="-54.402168"
       x2="-75.273094"
       xlink:href="#linearGradient3363"
       y1="1422.0023"
       y2="1341.8268" />
    <linearGradient
       gradientTransform="matrix(1.748538,0,0,0.578359,-3.482828,-5.154507)"
       gradientUnits="userSpaceOnUse"
       id="linearGradient3422"
       inkscape:collect="always"
       x1="-56.337173"
       x2="-77.882248"
       xlink:href="#linearGradient3376"
       y1="1418.2798"
       y2="1394.0889" />
    <linearGradient
       gradientTransform="matrix(1.748541,0,0,0.578358,-3.482828,-5.154507)"
       gradientUnits="userSpaceOnUse"
       id="linearGradient3421"
       inkscape:collect="always"
       x1="-54.402168"
       x2="-75.273094"
       xlink:href="#linearGradient3363"
       y1="1422.0023"
       y2="1341.8268" />
    <linearGradient
       gradientTransform="matrix(0.979784,0,0,1.020633,-382.7367,317.9636)"
       gradientUnits="userSpaceOnUse"
       id="linearGradient3420"
       inkscape:collect="always"
       x1="-257.64337"
       x2="-13.259475"
       xlink:href="#linearGradient3363"
       y1="811.32251"
       y2="989.40729" />
    <linearGradient
       id="linearGradient3363">
      <stop
         id="stop3364"
         offset="0.0000000"
         style="stop-color:#d9dbe6;stop-opacity:1.0000000;" />
      <stop
         id="stop3365"
         offset="0.036697246"
         style="stop-color:#b2b6df;stop-opacity:1.0000000;" />
      <stop
         id="stop3366"
         offset="0.44082990"
         style="stop-color:#787fb3;stop-opacity:1.0000000;" />
      <stop
         id="stop3367"
         offset="0.94495416"
         style="stop-color:#485093;stop-opacity:1.0000000;" />
      <stop
         id="stop3368"
         offset="1.0000000"
         style="stop-color:#2f3168;stop-opacity:1.0000000;" />
    </linearGradient>
    <linearGradient
       gradientTransform="matrix(0.850959,0,0,1.175145,-306.6545,88.94309)"
       gradientUnits="userSpaceOnUse"
       id="linearGradient3419"
       inkscape:collect="always"
       x1="-134.50366"
       x2="-80.057777"
       xlink:href="#linearGradient3363"
       y1="557.39575"
       y2="709.28973" />
    <linearGradient
       id="linearGradient3376">
      <stop
         id="stop3377"
         offset="0.0000000"
         style="stop-color:#ffffff;stop-opacity:1.0000000;" />
      <stop
         id="stop3378"
         offset="0.066731133"
         style="stop-color:#d7dcef;stop-opacity:1.0000000;" />
      <stop
         id="stop3379"
         offset="0.70324141"
         style="stop-color:#7884b3;stop-opacity:1.0000000;" />
      <stop
         id="stop3380"
         offset="0.96460676"
         style="stop-color:#2b3b61;stop-opacity:1.0000000;" />
      <stop
         id="stop3381"
         offset="1.0000000"
         style="stop-color:#213256;stop-opacity:1.0000000;" />
    </linearGradient>
    <linearGradient
       gradientTransform="matrix(0.868013,0,0,1.152056,-148.1712,37.18994)"
       gradientUnits="userSpaceOnUse"
       id="linearGradient3418"
       inkscape:collect="always"
       x1="-154.7914"
       x2="-91.829643"
       xlink:href="#linearGradient3376"
       y1="569.56873"
       y2="730.78772" />
    <linearGradient
       inkscape:collect="always"
       xlink:href="#linearGradient3363"
       id="linearGradient2224"
       gradientUnits="userSpaceOnUse"
       gradientTransform="matrix(0.2336374,0,0,7.450026e-2,75.972958,-19.556389)"
       x1="-54.402168"
       y1="1422.0023"
       x2="-75.273094"
       y2="1341.8268" />
    <linearGradient
       inkscape:collect="always"
       xlink:href="#linearGradient3376"
       id="linearGradient2226"
       gradientUnits="userSpaceOnUse"
       gradientTransform="matrix(0.233637,0,0,7.4500389e-2,75.972958,-19.556389)"
       x1="-56.337173"
       y1="1418.2798"
       x2="-77.882248"
       y2="1394.0889" />
    <linearGradient
       inkscape:collect="always"
       xlink:href="#linearGradient3363"
       id="linearGradient2229"
       gradientUnits="userSpaceOnUse"
       gradientTransform="matrix(0.2336374,0,0,7.450026e-2,75.972971,-24.700285)"
       x1="-54.402168"
       y1="1422.0023"
       x2="-75.273094"
       y2="1341.8268" />
    <linearGradient
       inkscape:collect="always"
       xlink:href="#linearGradient3376"
       id="linearGradient2231"
       gradientUnits="userSpaceOnUse"
       gradientTransform="matrix(0.233637,0,0,7.4500389e-2,75.972971,-24.700285)"
       x1="-56.337173"
       y1="1418.2798"
       x2="-77.882248"
       y2="1394.0889" />
    <linearGradient
       inkscape:collect="always"
       xlink:href="#linearGradient3363"
       id="linearGradient2242"
       gradientUnits="userSpaceOnUse"
       gradientTransform="matrix(0.1298769,0,0,0.1314712,61.942595,-85.78507)"
       x1="-257.64337"
       y1="811.32251"
       x2="-13.259475"
       y2="989.40729" />
    <linearGradient
       inkscape:collect="always"
       xlink:href="#linearGradient3363"
       id="linearGradient2245"
       gradientUnits="userSpaceOnUse"
       gradientTransform="matrix(0.1145385,0,0,0.1513744,50.394035,-49.766677)"
       x1="-134.50366"
       y1="557.39575"
       x2="-80.057777"
       y2="709.28973" />
    <linearGradient
       inkscape:collect="always"
       xlink:href="#linearGradient3376"
       id="linearGradient2248"
       gradientUnits="userSpaceOnUse"
       gradientTransform="matrix(0.1168339,0,0,0.1484003,50.095715,-49.861023)"
       x1="-154.7914"
       y1="569.56873"
       x2="-91.829643"
       y2="730.78772" />
    <linearGradient
       inkscape:collect="always"
       xlink:href="#linearGradient3376"
       id="linearGradient2284"
       gradientUnits="userSpaceOnUse"
       gradientTransform="matrix(0.1168339,0,0,0.1484003,50.095715,-49.861023)"
       x1="-154.7914"
       y1="569.56873"
       x2="-91.829643"
       y2="730.78772" />
    <linearGradient
       inkscape:collect="always"
       xlink:href="#linearGradient3363"
       id="linearGradient2286"
       gradientUnits="userSpaceOnUse"
       gradientTransform="matrix(0.1145385,0,0,0.1513744,50.394035,-49.766677)"
       x1="-134.50366"
       y1="557.39575"
       x2="-80.057777"
       y2="709.28973" />
    <linearGradient
       inkscape:collect="always"
       xlink:href="#linearGradient3363"
       id="linearGradient2288"
       gradientUnits="userSpaceOnUse"
       gradientTransform="matrix(0.1298769,0,0,0.1314712,61.942595,-85.78507)"
       x1="-257.64337"
       y1="811.32251"
       x2="-13.259475"
       y2="989.40729" />
    <linearGradient
       inkscape:collect="always"
       xlink:href="#linearGradient3363"
       id="linearGradient2290"
       gradientUnits="userSpaceOnUse"
       gradientTransform="matrix(0.2336374,0,0,7.450026e-2,75.972971,-24.700285)"
       x1="-54.402168"
       y1="1422.0023"
       x2="-75.273094"
       y2="1341.8268" />
    <linearGradient
       inkscape:collect="always"
       xlink:href="#linearGradient3376"
       id="linearGradient2292"
       gradientUnits="userSpaceOnUse"
       gradientTransform="matrix(0.233637,0,0,7.4500389e-2,75.972971,-24.700285)"
       x1="-56.337173"
       y1="1418.2798"
       x2="-77.882248"
       y2="1394.0889" />
    <linearGradient
       inkscape:collect="always"
       xlink:href="#linearGradient3363"
       id="linearGradient2294"
       gradientUnits="userSpaceOnUse"
       gradientTransform="matrix(0.2336374,0,0,7.450026e-2,75.972958,-19.556389)"
       x1="-54.402168"
       y1="1422.0023"
       x2="-75.273094"
       y2="1341.8268" />
    <linearGradient
       inkscape:collect="always"
       xlink:href="#linearGradient3376"
       id="linearGradient2296"
       gradientUnits="userSpaceOnUse"
       gradientTransform="matrix(0.233637,0,0,7.4500389e-2,75.972958,-19.556389)"
       x1="-56.337173"
       y1="1418.2798"
       x2="-77.882248"
       y2="1394.0889" />
    <linearGradient
       inkscape:collect="always"
       xlink:href="#linearGradient3363"
       id="linearGradient2298"
       gradientUnits="userSpaceOnUse"
       x1="-83.203087"
       y1="652.68365"
       x2="-51.446705"
       y2="696.04785" />
    <linearGradient
       inkscape:collect="always"
       xlink:href="#linearGradient3376"
       id="linearGradient2300"
       gradientUnits="userSpaceOnUse"
       x1="-56.230511"
       y1="692.08044"
       x2="-80.301514"
       y2="657.42157" />
    <linearGradient
       inkscape:collect="always"
       xlink:href="#linearGradient3363"
       id="linearGradient2302"
       gradientUnits="userSpaceOnUse"
       x1="-83.203087"
       y1="652.68365"
       x2="-51.446705"
       y2="696.04785" />
    <linearGradient
       inkscape:collect="always"
       xlink:href="#linearGradient3376"
       id="linearGradient2304"
       gradientUnits="userSpaceOnUse"
       x1="-56.230511"
       y1="692.08044"
       x2="-80.301514"
       y2="657.42157" />
    <radialGradient
       inkscape:collect="always"
       xlink:href="#linearGradient3499"
       id="radialGradient2306"
       gradientUnits="userSpaceOnUse"
       cx="-75.833542"
       cy="663.60602"
       fx="-75.833542"
       fy="663.60602"
       r="33.866852" />
    <linearGradient
       inkscape:collect="always"
       xlink:href="#linearGradient3376"
       id="linearGradient2308"
       gradientUnits="userSpaceOnUse"
       x1="-56.230511"
       y1="692.08044"
       x2="-80.301514"
       y2="657.42157" />
    <radialGradient
       inkscape:collect="always"
       xlink:href="#linearGradient3290"
       id="radialGradient2310"
       gradientUnits="userSpaceOnUse"
       cx="-73.978615"
       cy="664.96509"
       fx="-73.827393"
       fy="664.96503"
       r="22.582869" />
    <linearGradient
       inkscape:collect="always"
       xlink:href="#linearGradient3376"
       id="linearGradient2312"
       gradientUnits="userSpaceOnUse"
       x1="-56.230511"
       y1="692.08044"
       x2="-80.301514"
       y2="657.42157" />
  </defs>
  <sodipodi:namedview
     bordercolor="#666666"
     borderopacity="1.0"
     id="base"
     inkscape:current-layer="layer1"
     inkscape:cx="21.940036"
     inkscape:cy="7.7393903"
     inkscape:document-units="mm"
     inkscape:pageopacity="0.0"
     inkscape:pageshadow="2"
     inkscape:window-height="734"
     inkscape:window-width="1280"
     inkscape:window-x="0"
     inkscape:window-y="0"
     inkscape:zoom="8.4525474"
     pagecolor="#ffffff"
     width="40px"
     height="40px" />
  <g
     id="layer1"
     inkscape:groupmode="layer"
     inkscape:label="Layer 1"
     transform="translate(-24.207806,-30.025131)">
    <g
       id="g2314">
      <g
         id="g3233"
         transform="matrix(0.1213779,8.5067273e-3,0,0.1782767,68.207629,-119.75726)">
        <rect
           height="228.56616"
           id="rect3234"
           ry="26.292253"
           style="fill:#000000;fill-opacity:0.040625;fill-rule:nonzero;stroke:none;stroke-width:10.36981297;stroke-linecap:round;stroke-linejoin:round;stroke-miterlimit:0;stroke-dashoffset:0;stroke-opacity:1"
           transform="matrix(0.903403,-0.428793,0.815123,0.579288,0,0)"
           width="150.10487"
           x="-1104.4669"
           y="785.48676" />
        <path
           d="M -233.6262,868.73161 C -249.74825,870.62444 -263.21231,880.6971 -277.98594,886.65648 C -299.14699,896.73853 -320.38325,906.73619 -341.28245,917.32536 C -351.21372,923.34601 -350.16187,937.97686 -341.33408,944.46237 C -292.07621,980.08233 -242.20158,1015.0358 -192.5012,1050.1066 C -175.11022,1059.8082 -152.81608,1058.6073 -135.91987,1048.3874 C -107.94024,1035.0901 -79.728672,1022.1189 -52.215528,1007.9567 C -42.466101,1002.5533 -42.559433,988.33915 -50.839603,981.64806 C -70.973454,966.23411 -92.249089,952.11287 -112.79652,937.16169 C -142.66108,916.18094 -172.21562,894.65156 -202.41505,874.21218 C -211.87394,869.07534 -223.03705,867.94578 -233.6262,868.73161 z "
           id="path3235"
           style="fill:#000000;fill-opacity:0.040625;fill-rule:nonzero;stroke:none;stroke-width:10.36981297;stroke-linecap:round;stroke-linejoin:round;stroke-miterlimit:0;stroke-dashoffset:0;stroke-opacity:1" />
        <path
           d="M -233.68687,864.77149 C -255.44119,868.65777 -274.03176,881.58436 -294.15667,889.98209 C -311.57045,898.65062 -329.71682,906.19588 -346.218,916.40403 C -357.45519,926.38492 -351.4455,945.55121 -338.71528,951.27719 C -290.09581,985.95567 -241.56486,1020.862 -192.3354,1054.6148 C -172.14105,1065.1561 -147.4777,1060.837 -128.63311,1049.4222 C -101.41875,1036.2313 -73.540925,1024.0485 -47.285804,1009.1334 C -36.006186,999.87428 -40.912891,980.63594 -53.405731,974.90744 C -102.57044,939.59978 -151.74102,904.16585 -201.79968,870.20477 C -211.69912,865.41489 -222.81133,864.17867 -233.68687,864.77149 z "
           id="path3236"
           style="fill:#000000;fill-opacity:0.040625;fill-rule:nonzero;stroke:none;stroke-width:10.36981297;stroke-linecap:round;stroke-linejoin:round;stroke-miterlimit:0;stroke-dashoffset:0;stroke-opacity:1" />
        <path
           d="M -233.72754,860.83701 C -260.12444,866.43154 -283.09218,881.48812 -307.63145,892.02343 C -322.19951,899.29754 -337.7585,905.48859 -350.57406,915.57711 C -361.98018,928.42531 -353.73425,949.38907 -339.19397,955.91673 C -290.3514,990.626 -241.67223,1025.6577 -192.01732,1059.1134 C -169.70706,1069.6871 -143.46215,1063.4288 -123.13927,1051.2611 C -96.230292,1038.0562 -68.091354,1026.5553 -42.977164,1010.2442 C -31.353682,998.09375 -38.511194,976.90166 -52.915942,970.41157 C -102.49631,935.2661 -151.39993,898.96084 -202.29154,865.8056 C -212.18496,861.53639 -223.04852,860.4479 -233.72754,860.83701 z "
           id="path3237"
           style="fill:#000000;fill-opacity:0.040625;fill-rule:nonzero;stroke:none;stroke-width:10.36981297;stroke-linecap:round;stroke-linejoin:round;stroke-miterlimit:0;stroke-dashoffset:0;stroke-opacity:1" />
        <path
           d="M -234.18606,856.97474 C -264.6811,864.36986 -291.70307,881.08009 -320.13163,893.78099 C -332.42238,900.13661 -346.33197,905.411 -355.48477,916.07159 C -365.64049,931.32943 -356.00971,952.69145 -340.40194,959.99119 C -291.26417,994.69628 -242.61903,1030.1571 -192.40481,1063.2872 C -168.15553,1073.9241 -140.32506,1066.4349 -118.56435,1053.6075 C -91.870878,1040.7356 -64.470866,1028.9066 -39.654806,1012.5997 C -27.001569,998.104 -35.013614,974.10207 -51.592306,966.44349 C -101.7071,931.04406 -150.92771,894.11701 -202.85427,861.47334 C -212.81594,857.62578 -223.58216,856.61602 -234.18606,856.97474 z "
           id="path3238"
           style="fill:#000000;fill-opacity:0.040625;fill-rule:nonzero;stroke:none;stroke-width:10.36981297;stroke-linecap:round;stroke-linejoin:round;stroke-miterlimit:0;stroke-dashoffset:0;stroke-opacity:1" />
        <path
           d="M -234.63878,853.11788 C -268.84654,862.36486 -299.8205,880.23208 -331.66605,895.2916 C -345.36149,902.02146 -362.40876,910.75903 -363.42003,928.05538 C -364.38546,944.35844 -353.08395,958.68797 -339.13261,965.83765 C -290.20884,1000.1525 -242.18172,1035.9268 -191.68585,1067.7961 C -165.43371,1078.0705 -136.35518,1069.0082 -113.11707,1055.5647 C -86.901854,1042.6444 -59.590961,1031.2952 -35.732527,1014.2116 C -23.028467,997.79592 -31.396128,971.92861 -49.388777,963.14913 C -99.721954,927.43942 -149.40255,890.68554 -201.60753,857.74288 C -212.20564,854.00586 -223.43809,852.67811 -234.63878,853.11788 z "
           id="path3239"
           style="fill:#000000;fill-opacity:0.040625;fill-rule:nonzero;stroke:none;stroke-width:10.36981297;stroke-linecap:round;stroke-linejoin:round;stroke-miterlimit:0;stroke-dashoffset:0;stroke-opacity:1" />
      </g>
      <g
         transform="matrix(0.7452902,0,0,0.7952248,5.6163995,6.5036947)"
         id="g2261">
        <path
           transform="matrix(0.1076793,-9.9242115e-3,0,0.1075122,64.810074,-47.950689)"
           style="fill:#000000;fill-opacity:1;fill-rule:nonzero;stroke:none;stroke-width:10.36981297;stroke-linecap:round;stroke-linejoin:round;stroke-miterlimit:0;stroke-dashoffset:0;stroke-opacity:1"
           sodipodi:type="arc"
           sodipodi:ry="15.930106"
           sodipodi:rx="21.57202"
           sodipodi:cy="1015.192"
           sodipodi:cx="-333.53659"
           id="path3241"
           d="M -311.96457 1015.192 A 21.57202 15.930106 0 1 1  -355.10861,1015.192 A 21.57202 15.930106 0 1 1  -311.96457 1015.192 z" />
        <path
           transform="matrix(0.1076793,1.9662568e-3,0,0.1075122,82.815211,-30.490042)"
           style="fill:#000000;fill-opacity:1;fill-rule:nonzero;stroke:none;stroke-width:10.36981297;stroke-linecap:round;stroke-linejoin:round;stroke-miterlimit:0;stroke-dashoffset:0;stroke-opacity:1"
           sodipodi:type="arc"
           sodipodi:ry="15.930106"
           sodipodi:rx="21.57202"
           sodipodi:cy="1015.192"
           sodipodi:cx="-333.53659"
           id="path3242"
           d="M -311.96457 1015.192 A 21.57202 15.930106 0 1 1  -355.10861,1015.192 A 21.57202 15.930106 0 1 1  -311.96457 1015.192 z" />
        <path
           transform="matrix(0.1076793,-9.9242115e-3,0,0.1075122,94.518849,-39.414995)"
           style="fill:#000000;fill-opacity:1;fill-rule:nonzero;stroke:none;stroke-width:10.36981297;stroke-linecap:round;stroke-linejoin:round;stroke-miterlimit:0;stroke-dashoffset:0;stroke-opacity:1"
           sodipodi:type="arc"
           sodipodi:ry="15.930106"
           sodipodi:rx="21.57202"
           sodipodi:cy="1015.192"
           sodipodi:cx="-333.53659"
           id="path3243"
           d="M -311.96457 1015.192 A 21.57202 15.930106 0 1 1  -355.10861,1015.192 A 21.57202 15.930106 0 1 1  -311.96457 1015.192 z" />
        <path
           style="fill:#000000;fill-opacity:1;fill-rule:nonzero;stroke:#000000;stroke-width:3.67701244;stroke-linecap:round;stroke-linejoin:round;stroke-miterlimit:0;stroke-dashoffset:0;stroke-opacity:1"
           id="path3244"
           d="M 42.041083,31.8702 C 41.867668,31.885963 41.70471,31.932355 41.557367,32.003039 C 40.976022,32.281923 28.500752,38.262451 28.156324,38.427608 C 28.119009,38.443477 28.082548,38.460767 28.046962,38.479938 C 28.04616,38.480323 27.97125,38.516167 27.97125,38.516167 C 27.97125,38.518976 27.975396,38.529348 27.975456,38.532268 C 27.463665,38.853859 27.142623,39.520316 27.142623,40.5168 L 27.142623,59.440293 C 27.142623,61.597985 28.60023,64.376507 30.406656,65.667616 L 45.292497,76.306802 C 46.158248,76.925583 46.93494,77.074774 47.517592,76.838157 C 47.519692,76.839716 47.523948,76.848758 47.526005,76.850227 L 47.589098,76.822055 L 47.59751,76.818024 C 47.600211,76.816735 47.603234,76.815319 47.605923,76.814005 L 61.057441,70.377356 C 61.647146,70.095263 62.012255,69.379087 62.012255,68.30024 L 62.012255,49.380772 C 62.012255,47.223081 60.558854,44.44456 58.752428,43.153449 L 43.866586,32.514267 C 43.189177,32.0301 42.561331,31.82291 42.041083,31.8702 z " />
        <path
           style="fill:#000000;fill-opacity:1;fill-rule:nonzero;stroke:url(#linearGradient2284);stroke-width:1.6459322;stroke-linecap:round;stroke-linejoin:round;stroke-miterlimit:0;stroke-dashoffset:0;stroke-opacity:1"
           id="path3245"
           d="M 42.041084,31.870199 C 41.867669,31.885962 41.704711,31.932354 41.557368,32.003038 C 40.976023,32.281922 28.500752,38.262449 28.156324,38.427606 C 28.119009,38.443476 28.082548,38.460765 28.046962,38.479937 C 28.04616,38.480322 27.97125,38.516165 27.97125,38.516165 C 27.97125,38.518975 27.975396,38.529347 27.975456,38.532267 C 27.463665,38.853858 27.142623,39.520315 27.142623,40.516799 L 27.142623,59.440292 C 27.142623,61.597984 28.60023,64.376505 30.406656,65.667615 L 45.292499,76.306802 C 46.15825,76.92557 46.934941,77.074774 47.517593,76.838157 C 47.519693,76.839703 47.523948,76.848758 47.526006,76.850227 L 47.589099,76.822055 L 47.597512,76.818024 C 47.600212,76.816735 47.603234,76.815306 47.605924,76.814005 L 61.057441,70.377355 C 61.647146,70.095261 62.012255,69.379086 62.012255,68.300239 L 62.012255,49.380771 C 62.012255,47.223079 60.558854,44.444559 58.752428,43.153448 L 43.866587,32.514266 C 43.189177,32.030099 42.561331,31.822909 42.041084,31.870199 z " />
        <path
           style="fill:url(#linearGradient2286);fill-opacity:1;fill-rule:nonzero;stroke:#000000;stroke-width:0;stroke-linecap:round;stroke-linejoin:miter;stroke-miterlimit:0;stroke-dashoffset:0;stroke-opacity:1"
           sodipodi:nodetypes="ccccsccsc"
           id="path3247"
           d="M 43.863936,32.507643 L 58.750797,43.147761 C 60.557223,44.438871 62.011493,47.215343 62.011493,49.373035 L 62.011493,68.295765 C 62.011493,69.374615 61.648259,70.089079 61.058556,70.37118 L 47.523905,76.845664 C 45.717479,75.554554 27.972519,40.667678 27.972519,38.509987 C 27.972519,38.509987 40.966808,32.279188 41.556179,31.996454 C 42.145549,31.713721 42.960724,31.862087 43.863936,32.507643 z " />
        <rect
           y="17.217442"
           x="33.363731"
           width="26.314198"
           transform="matrix(0.813561,0.5814796,0,1,0,0)"
           style="fill:url(#linearGradient2288);fill-opacity:1;fill-rule:nonzero;stroke:#000000;stroke-width:0;stroke-linecap:round;stroke-linejoin:miter;stroke-miterlimit:0;stroke-dashoffset:0;stroke-opacity:1"
           ry="3.8947494"
           id="rect3248"
           height="26.712227" />
        <g
           transform="matrix(2.2995881e-2,1.5487367e-2,0,2.3073445e-2,47.117274,62.754806)"
           style="opacity:0.5276074"
           id="g3249">
          <rect
             y="358.73883"
             x="-650.47931"
             width="22.56765"
             style="fill:#000000;fill-opacity:1;fill-rule:nonzero;stroke:none;stroke-width:12.5;stroke-linecap:round;stroke-linejoin:round;stroke-miterlimit:0;stroke-dashoffset:0;stroke-opacity:1"
             ry="11.283825"
             id="rect3250"
             height="155.31854" />
          <rect
             y="314.26727"
             x="-609.41132"
             width="22.56765"
             style="fill:#000000;fill-opacity:1;fill-rule:nonzero;stroke:none;stroke-width:12.5;stroke-linecap:round;stroke-linejoin:round;stroke-miterlimit:0;stroke-dashoffset:0;stroke-opacity:1"
             ry="11.730078"
             id="rect3251"
             height="244.26164" />
          <rect
             y="293.69089"
             x="-568.34338"
             width="22.56765"
             style="fill:#000000;fill-opacity:1;fill-rule:nonzero;stroke:none;stroke-width:12.5;stroke-linecap:round;stroke-linejoin:round;stroke-miterlimit:0;stroke-dashoffset:0;stroke-opacity:1"
             ry="11.231586"
             id="rect3252"
             height="285.4144" />
          <rect
             y="285.06207"
             x="-528.60291"
             width="25.222668"
             style="fill:#000000;fill-opacity:1;fill-rule:nonzero;stroke:none;stroke-width:12.5;stroke-linecap:round;stroke-linejoin:round;stroke-miterlimit:0;stroke-dashoffset:0;stroke-opacity:1"
             ry="10.970386"
             id="rect3253"
             height="302.67203" />
          <rect
             y="358.7388"
             x="-404.07144"
             width="22.56765"
             style="fill:#000000;fill-opacity:1;fill-rule:nonzero;stroke:none;stroke-width:12.5;stroke-linecap:round;stroke-linejoin:round;stroke-miterlimit:0;stroke-dashoffset:0;stroke-opacity:1"
             ry="11.283825"
             id="rect3254"
             height="155.31854" />
          <rect
             y="314.26727"
             x="-445.1394"
             width="22.56765"
             style="fill:#000000;fill-opacity:1;fill-rule:nonzero;stroke:none;stroke-width:12.5;stroke-linecap:round;stroke-linejoin:round;stroke-miterlimit:0;stroke-dashoffset:0;stroke-opacity:1"
             ry="11.730078"
             id="rect3255"
             height="244.26164" />
          <rect
             y="293.69089"
             x="-486.20737"
             width="22.56765"
             style="fill:#000000;fill-opacity:1;fill-rule:nonzero;stroke:none;stroke-width:12.5;stroke-linecap:round;stroke-linejoin:round;stroke-miterlimit:0;stroke-dashoffset:0;stroke-opacity:1"
             ry="11.231586"
             id="rect3256"
             height="285.4144" />
        </g>
        <rect
           y="76.789154"
           x="54.269299"
           width="12.292771"
           transform="matrix(0.916287,-0.4005224,0,1,0,0)"
           style="fill:url(#linearGradient2290);fill-opacity:1;fill-rule:nonzero;stroke:url(#linearGradient2292);stroke-width:0.51584309;stroke-linecap:round;stroke-linejoin:round;stroke-miterlimit:0;stroke-dashoffset:0;stroke-opacity:1"
           ry="1.3037151"
           id="rect3257"
           height="3.9198236" />
        <rect
           y="81.933052"
           x="54.269379"
           width="12.292725"
           transform="matrix(0.916287,-0.4005224,0,1,0,0)"
           style="fill:url(#linearGradient2294);fill-opacity:1;fill-rule:nonzero;stroke:url(#linearGradient2296);stroke-width:0.51584214;stroke-linecap:round;stroke-linejoin:round;stroke-miterlimit:0;stroke-dashoffset:0;stroke-opacity:1"
           ry="1.3037151"
           id="rect3258"
           height="3.9198236" />
        <path
           transform="matrix(3.4304846e-2,-1.3385774e-2,0,2.937562e-2,62.790443,41.934308)"
           style="fill:url(#linearGradient2298);fill-opacity:1;fill-rule:nonzero;stroke:url(#linearGradient2300);stroke-width:10.36981297;stroke-linecap:round;stroke-linejoin:round;stroke-miterlimit:0;stroke-dashoffset:0;stroke-opacity:1"
           sodipodi:type="arc"
           sodipodi:ry="26.550177"
           sodipodi:rx="26.550177"
           sodipodi:cy="678.0047"
           sodipodi:cx="-67.70295"
           id="path3259"
           d="M -41.152773 678.0047 A 26.550177 26.550177 0 1 1  -94.253126,678.0047 A 26.550177 26.550177 0 1 1  -41.152773 678.0047 z" />
        <path
           transform="matrix(3.4304846e-2,-1.3385774e-2,0,2.937562e-2,62.790443,43.897125)"
           style="fill:url(#linearGradient2302);fill-opacity:1;fill-rule:nonzero;stroke:url(#linearGradient2304);stroke-width:10.36981297;stroke-linecap:round;stroke-linejoin:round;stroke-miterlimit:0;stroke-dashoffset:0;stroke-opacity:1"
           sodipodi:type="arc"
           sodipodi:ry="26.550177"
           sodipodi:rx="26.550177"
           sodipodi:cy="678.0047"
           sodipodi:cx="-67.70295"
           id="path3260"
           d="M -41.152773 678.0047 A 26.550177 26.550177 0 1 1  -94.253126,678.0047 A 26.550177 26.550177 0 1 1  -41.152773 678.0047 z" />
        <path
           transform="matrix(3.4304846e-2,-1.3385774e-2,0,2.937562e-2,62.790443,45.859943)"
           style="fill:url(#radialGradient2306);fill-opacity:1;fill-rule:nonzero;stroke:url(#linearGradient2308);stroke-width:10.36981297;stroke-linecap:round;stroke-linejoin:round;stroke-miterlimit:0;stroke-dashoffset:0;stroke-opacity:1"
           sodipodi:type="arc"
           sodipodi:ry="26.550177"
           sodipodi:rx="26.550177"
           sodipodi:cy="678.0047"
           sodipodi:cx="-67.70295"
           id="path3261"
           d="M -41.152773 678.0047 A 26.550177 26.550177 0 1 1  -94.253126,678.0047 A 26.550177 26.550177 0 1 1  -41.152773 678.0047 z" />
        <path
           transform="matrix(3.4304846e-2,-1.3385774e-2,0,2.937562e-2,62.790443,47.822735)"
           style="fill:url(#radialGradient2310);fill-opacity:1;fill-rule:nonzero;stroke:url(#linearGradient2312);stroke-width:10.36981297;stroke-linecap:round;stroke-linejoin:round;stroke-miterlimit:0;stroke-dashoffset:0;stroke-opacity:1"
           sodipodi:type="arc"
           sodipodi:ry="26.550177"
           sodipodi:rx="26.550177"
           sodipodi:cy="678.0047"
           sodipodi:cx="-67.70295"
           id="path3262"
           d="M -41.152773 678.0047 A 26.550177 26.550177 0 1 1  -94.253126,678.0047 A 26.550177 26.550177 0 1 1  -41.152773 678.0047 z" />
      </g>
    </g>
  </g>
</svg>
