<?xml version="1.0" encoding="UTF-8" standalone="no"?>
<!-- Created with Inkscape (http://www.inkscape.org/) -->
<svg
   xmlns:dc="http://purl.org/dc/elements/1.1/"
   xmlns:cc="http://web.resource.org/cc/"
   xmlns:rdf="http://www.w3.org/1999/02/22-rdf-syntax-ns#"
   xmlns:svg="http://www.w3.org/2000/svg"
   xmlns="http://www.w3.org/2000/svg"
   xmlns:xlink="http://www.w3.org/1999/xlink"
   xmlns:sodipodi="http://sodipodi.sourceforge.net/DTD/sodipodi-0.dtd"
   xmlns:inkscape="http://www.inkscape.org/namespaces/inkscape"
   height="40"
   id="svg2866"
   inkscape:version="0.45.1"
   sodipodi:docbase="/usr/local/nagios/share/images/logos"
   sodipodi:docname="switch.8.svg"
   sodipodi:version="0.32"
   version="1.0"
   width="40"
   x="0.0000000"
   y="0.0000000"
   inkscape:output_extension="org.inkscape.output.svg.inkscape">
  <metadata
     id="metadata3">
    <rdf:RDF>
      <cc:Work
         rdf:about="">
        <dc:title>5 port hub</dc:title>
        <dc:description>Derived from Andrew Fitzsimons scanner</dc:description>
        <dc:subject>
          <rdf:Bag>
            <rdf:li>hash</rdf:li>
            <rdf:li>hub</rdf:li>
            <rdf:li>switch</rdf:li>
            <rdf:li>hardware</rdf:li>
            <rdf:li>computer</rdf:li>
          </rdf:Bag>
        </dc:subject>
        <dc:publisher>
          <cc:Agent
             rdf:about="http://www.openclipart.org">
            <dc:title>Ruairi Hann</dc:title>
          </cc:Agent>
        </dc:publisher>
        <dc:creator>
          <cc:Agent>
            <dc:title>Ruairi Hann</dc:title>
          </cc:Agent>
        </dc:creator>
        <dc:rights>
          <cc:Agent>
            <dc:title>Ruairi Hann</dc:title>
          </cc:Agent>
        </dc:rights>
        <dc:date />
        <dc:format>image/svg+xml</dc:format>
        <dc:type
           rdf:resource="http://purl.org/dc/dcmitype/StillImage" />
        <cc:license
           rdf:resource="http://web.resource.org/cc/PublicDomain" />
        <dc:language>en</dc:language>
      </cc:Work>
      <cc:License
         rdf:about="http://web.resource.org/cc/PublicDomain">
        <cc:permits
           rdf:resource="http://web.resource.org/cc/Reproduction" />
        <cc:permits
           rdf:resource="http://web.resource.org/cc/Distribution" />
        <cc:permits
           rdf:resource="http://web.resource.org/cc/DerivativeWorks" />
      </cc:License>
    </rdf:RDF>
  </metadata>
  <sodipodi:namedview
     bordercolor="#666666"
     borderopacity="1.0"
     id="base"
     inkscape:current-layer="svg2866"
     inkscape:cx="20"
     inkscape:cy="25"
     inkscape:pageopacity="0.0"
     inkscape:pageshadow="2"
     inkscape:window-height="725"
     inkscape:window-width="1260"
     inkscape:window-x="0"
     inkscape:window-y="0"
     inkscape:zoom="10.9"
     pagecolor="#ffffff"
     width="40px"
     height="40px" />
  <defs
     id="defs2868">
    <linearGradient
       collect="always"
       id="linearGradient8481">
      <stop
         id="stop8482"
         offset="0.0000000"
         style="stop-color:#ffffff;stop-opacity:1.0000000;" />
      <stop
         id="stop8483"
         offset="1.0000000"
         style="stop-color:#ffffff;stop-opacity:0.0039215689;" />
    </linearGradient>
    <linearGradient
       collect="always"
       id="linearGradient8474">
      <stop
         id="stop8475"
         offset="0.0000000"
         style="stop-color:#ffffff;stop-opacity:1.0000000;" />
      <stop
         id="stop8476"
         offset="1.0000000"
         style="stop-color:#a2a2a2;stop-opacity:1.0000000;" />
    </linearGradient>
    <linearGradient
       id="linearGradient1806">
      <stop
         id="stop1807"
         offset="0.0000000"
         style="stop-color:#000000;stop-opacity:0.53103447;" />
      <stop
         id="stop3276"
         offset="0.64777780"
         style="stop-color:#000000;stop-opacity:0.073446326;" />
      <stop
         id="stop1808"
         offset="1.0000000"
         style="stop-color:#000000;stop-opacity:0.0000000;" />
    </linearGradient>
    <linearGradient
       collect="always"
       id="linearGradient8468">
      <stop
         id="stop8469"
         offset="0.0000000"
         style="stop-color:#000000;stop-opacity:0.58620691;" />
      <stop
         id="stop8470"
         offset="1.0000000"
         style="stop-color:#000000;stop-opacity:0.0068965517;" />
    </linearGradient>
    <linearGradient
       collect="always"
       id="linearGradient1851">
      <stop
         id="stop1852"
         offset="0.0000000"
         style="stop-color:#000000;stop-opacity:0.37241378;" />
      <stop
         id="stop1854"
         offset="0.50000000"
         style="stop-color:#000000;stop-opacity:0.11034483;" />
      <stop
         id="stop1853"
         offset="1.0000000"
         style="stop-color:#adadad;stop-opacity:0.0000000;" />
    </linearGradient>
    <radialGradient
       collect="always"
       cx="-289.0914"
       cy="598.36652"
       fx="-285.65439"
       fy="552.23834"
       gradientTransform="matrix(-1.27051,0,0,0.218761,-207.1544,6.085e-2)"
       gradientUnits="userSpaceOnUse"
       id="radialGradient1875"
       r="125.20509"
       xlink:href="#linearGradient1851" />
    <linearGradient
       gradientTransform="matrix(0.272455,0,0,0.204889,118.9307,88.9786)"
       gradientUnits="userSpaceOnUse"
       id="linearGradient4929"
       inkscape:collect="always"
       x1="68.268654"
       x2="70.638657"
       xlink:href="#linearGradient8474"
       y1="164.80815"
       y2="87.802277" />
    <linearGradient
       gradientTransform="matrix(0.272455,0,0,0.204889,143.0464,89.1095)"
       gradientUnits="userSpaceOnUse"
       id="linearGradient7275"
       inkscape:collect="always"
       x1="68.268654"
       x2="70.638657"
       xlink:href="#linearGradient8474"
       y1="164.80815"
       y2="87.802277" />
    <linearGradient
       gradientTransform="matrix(0.272455,0,0,0.204889,169.0464,89.1095)"
       gradientUnits="userSpaceOnUse"
       id="linearGradient7281"
       inkscape:collect="always"
       x1="68.268654"
       x2="70.638657"
       xlink:href="#linearGradient8474"
       y1="164.80815"
       y2="87.802277" />
    <linearGradient
       gradientTransform="matrix(0.272455,0,0,0.204889,193.0464,89.1095)"
       gradientUnits="userSpaceOnUse"
       id="linearGradient7287"
       inkscape:collect="always"
       x1="68.268654"
       x2="70.638657"
       xlink:href="#linearGradient8474"
       y1="164.80815"
       y2="87.802277" />
    <linearGradient
       gradientTransform="matrix(0.272455,0,0,0.204889,215.0464,89.1095)"
       gradientUnits="userSpaceOnUse"
       id="linearGradient7293"
       inkscape:collect="always"
       x1="68.268654"
       x2="70.638657"
       xlink:href="#linearGradient8474"
       y1="164.80815"
       y2="87.802277" />
    <linearGradient
       gradientTransform="matrix(0.272455,0,0,0.204889,193.0464,89.1095)"
       gradientUnits="userSpaceOnUse"
       id="linearGradient10028"
       inkscape:collect="always"
       x1="68.268654"
       x2="70.638657"
       xlink:href="#linearGradient8474"
       y1="164.80815"
       y2="87.802277" />
    <linearGradient
       gradientTransform="matrix(0.272455,0,0,0.204889,193.0464,89.1095)"
       gradientUnits="userSpaceOnUse"
       id="linearGradient10036"
       inkscape:collect="always"
       x1="68.268654"
       x2="70.638657"
       xlink:href="#linearGradient8474"
       y1="164.80815"
       y2="87.802277" />
    <linearGradient
       gradientTransform="matrix(0.272455,0,0,0.204889,193.0464,89.1095)"
       gradientUnits="userSpaceOnUse"
       id="linearGradient10044"
       inkscape:collect="always"
       x1="68.268654"
       x2="70.638657"
       xlink:href="#linearGradient8474"
       y1="164.80815"
       y2="87.802277" />
    <linearGradient
       gradientTransform="matrix(0.272455,0,0,0.204889,215.0464,89.1095)"
       gradientUnits="userSpaceOnUse"
       id="linearGradient10046"
       inkscape:collect="always"
       x1="68.268654"
       x2="70.638657"
       xlink:href="#linearGradient8474"
       y1="164.80815"
       y2="87.802277" />
    <linearGradient
       gradientTransform="matrix(0.272455,0,0,0.204889,193.0464,89.1095)"
       gradientUnits="userSpaceOnUse"
       id="linearGradient10048"
       inkscape:collect="always"
       x1="68.268654"
       x2="70.638657"
       xlink:href="#linearGradient8474"
       y1="164.80815"
       y2="87.802277" />
    <radialGradient
       inkscape:collect="always"
       xlink:href="#linearGradient1851"
       id="radialGradient2254"
       gradientUnits="userSpaceOnUse"
       gradientTransform="matrix(-0.1586279,0,0,-0.1596702,-25.772546,115.53049)"
       cx="-289.0914"
       cy="598.36652"
       fx="-285.65439"
       fy="552.23834"
       r="125.20509" />
    <linearGradient
       inkscape:collect="always"
       xlink:href="#linearGradient8474"
       id="linearGradient2256"
       gradientUnits="userSpaceOnUse"
       gradientTransform="matrix(1.33512,0,0,-0.596114,-231.8379,185.4951)"
       x1="312.61249"
       y1="135.90253"
       x2="339.46603"
       y2="316.70621" />
    <linearGradient
       inkscape:collect="always"
       xlink:href="#linearGradient1806"
       id="linearGradient2258"
       gradientUnits="userSpaceOnUse"
       gradientTransform="matrix(1.33512,0,0,-0.596114,-231.8379,185.4951)"
       x1="310.44888"
       y1="142.43878"
       x2="311.96149"
       y2="261.76053" />
    <linearGradient
       inkscape:collect="always"
       xlink:href="#linearGradient8468"
       id="linearGradient2260"
       gradientUnits="userSpaceOnUse"
       gradientTransform="matrix(1.423388,0,0,-0.464941,-231.8379,154.7338)"
       x1="282.27411"
       y1="419.36389"
       x2="282.27411"
       y2="211.77074" />
    <linearGradient
       inkscape:collect="always"
       xlink:href="#linearGradient8474"
       id="linearGradient2262"
       gradientUnits="userSpaceOnUse"
       gradientTransform="matrix(1.423388,0,0,-0.464941,-231.8379,154.7338)"
       x1="151.97781"
       y1="82.293236"
       x2="200.30676"
       y2="418.78641" />
    <linearGradient
       inkscape:collect="always"
       xlink:href="#linearGradient8468"
       id="linearGradient2264"
       gradientUnits="userSpaceOnUse"
       gradientTransform="matrix(4.050391,0,0,1.342646,-91.51548,-60.79889)"
       x1="68.268654"
       y1="164.80815"
       x2="70.638657"
       y2="87.802277" />
    <linearGradient
       inkscape:collect="always"
       xlink:href="#linearGradient8481"
       id="linearGradient2266"
       gradientUnits="userSpaceOnUse"
       gradientTransform="matrix(1.427745,0,0,-0.463522,-231.8379,154.7338)"
       x1="280.30069"
       y1="418.04541"
       x2="283.50528"
       y2="212.07808" />
    <linearGradient
       inkscape:collect="always"
       xlink:href="#linearGradient8474"
       id="linearGradient2268"
       gradientUnits="userSpaceOnUse"
       gradientTransform="matrix(0.272455,0,0,0.204889,193.0464,89.1095)"
       x1="68.268654"
       y1="164.80815"
       x2="70.638657"
       y2="87.802277" />
    <linearGradient
       inkscape:collect="always"
       xlink:href="#linearGradient8474"
       id="linearGradient2270"
       gradientUnits="userSpaceOnUse"
       gradientTransform="matrix(0.272455,0,0,0.204889,215.0464,89.1095)"
       x1="68.268654"
       y1="164.80815"
       x2="70.638657"
       y2="87.802277" />
    <linearGradient
       inkscape:collect="always"
       xlink:href="#linearGradient8474"
       id="linearGradient2272"
       gradientUnits="userSpaceOnUse"
       gradientTransform="matrix(0.272455,0,0,0.204889,193.0464,89.1095)"
       x1="68.268654"
       y1="164.80815"
       x2="70.638657"
       y2="87.802277" />
    <linearGradient
       inkscape:collect="always"
       xlink:href="#linearGradient8474"
       id="linearGradient2274"
       gradientUnits="userSpaceOnUse"
       gradientTransform="matrix(0.272455,0,0,0.204889,193.0464,89.1095)"
       x1="68.268654"
       y1="164.80815"
       x2="70.638657"
       y2="87.802277" />
    <linearGradient
       inkscape:collect="always"
       xlink:href="#linearGradient8474"
       id="linearGradient2276"
       gradientUnits="userSpaceOnUse"
       gradientTransform="matrix(0.272455,0,0,0.204889,193.0464,89.1095)"
       x1="68.268654"
       y1="164.80815"
       x2="70.638657"
       y2="87.802277" />
  </defs>
  <g
     id="g2278">
    <path
       style="fill:url(#radialGradient2254);fill-opacity:1;fill-rule:evenodd;stroke:none;stroke-width:1pt;stroke-linecap:butt;stroke-linejoin:miter;stroke-opacity:1"
       id="path10011"
       d="M 0.22436825,19.989308 C 0.22436825,31.030302 9.1164423,39.9808 20.085371,39.9808 C 31.054301,39.9808 39.946375,31.030302 39.946375,19.989308 C 39.946375,8.9483019 31.054301,-0.002196622 20.085371,-0.002196622 C 9.1164423,-0.002196622 0.22436825,8.9483019 0.22436825,19.989308 L 0.22436825,19.989308 z " />
    <g
       transform="matrix(0.1540516,0,0,0.1773736,-4.4569256,8.1064035)"
       id="g2224">
      <path
         d="M 46.933371,17.616754 L 30.90218,89.04146 C 28.338806,100.46214 42.118795,117.61134 58.048331,117.61134 L 259.40014,117.61134 C 275.41106,117.61134 289.38251,100.53969 286.9738,89.04146 L 272.01135,17.616754 C 270.19772,8.95923 253.71427,3.331814 241.65895,3.331814 L 77.499511,3.331814 C 65.384329,3.331814 48.882918,8.930757 46.933371,17.616754 z "
         id="path8486"
         style="fill:url(#linearGradient2256);fill-opacity:1;fill-rule:evenodd;stroke:url(#linearGradient2258);stroke-width:0.60545664pt;stroke-linecap:butt;stroke-linejoin:miter;stroke-opacity:0.32704408" />
      <path
         d="M 52.218915,15.224929 L 36.944371,65.148089 C 34.501986,73.130715 47.631584,85.11735 62.809272,85.11735 L 254.65763,85.11735 C 269.91286,85.11735 283.22487,73.184914 280.92986,65.148089 L 266.67361,15.224929 C 264.94558,9.173655 249.24012,5.240305 237.75379,5.240305 L 81.342391,5.240305 C 69.799025,5.240305 54.076452,9.153754 52.218915,15.224929 z "
         id="path8477"
         style="fill:url(#linearGradient2260);fill-opacity:1;fill-rule:evenodd;stroke:none;stroke-width:0.67866912pt;stroke-linecap:butt;stroke-linejoin:miter;stroke-opacity:1" />
      <path
         d="M 49.576148,14.483028 L 33.923275,65.642694 C 31.420391,73.823027 44.875185,86.10655 60.428806,86.10655 L 257.02889,86.10655 C 272.66196,86.10655 286.30369,73.878576 283.95183,65.642694 L 269.34248,14.483028 C 267.57165,8.281869 251.4772,4.251101 239.70637,4.251101 L 79.420946,4.251101 C 67.591677,4.251101 51.479685,8.261478 49.576148,14.483028 z "
         id="path8463"
         style="fill:url(#linearGradient2262);fill-opacity:1;fill-rule:evenodd;stroke:none;stroke-width:0.67866912pt;stroke-linecap:butt;stroke-linejoin:miter;stroke-opacity:1" />
      <path
         d="M 53.712554,12.26363 L 38.422592,62.977888 C 35.977738,71.087006 49.120584,83.26358 64.313601,83.26358 L 256.35564,83.26358 C 271.62626,83.26358 284.95176,71.142067 282.65441,62.977888 L 268.38377,12.26363 C 266.65401,6.116468 250.93268,2.12079 239.43474,2.12079 L 82.865431,2.12079 C 71.310418,2.12079 55.571957,6.096252 53.712554,12.26363 z "
         id="path1717"
         style="fill:url(#linearGradient2264);fill-opacity:1;fill-rule:evenodd;stroke:none;stroke-width:0.55278249pt;stroke-linecap:butt;stroke-linejoin:miter;stroke-opacity:1" />
      <path
         d="M 58.201994,16.64977 L 43.554722,64.231062 C 41.212633,71.839224 53.803039,83.26357 68.357444,83.26357 L 252.3273,83.26357 C 266.95605,83.26357 279.72141,71.890883 277.52064,64.231062 L 263.84985,16.64977 C 262.19279,10.882361 247.13229,7.133523 236.11765,7.133523 L 86.129475,7.133523 C 75.060161,7.133523 59.983241,10.863394 58.201994,16.64977 z "
         id="path8462"
         style="fill:url(#linearGradient2266);fill-opacity:1;fill-rule:evenodd;stroke:none;stroke-width:0.55278249pt;stroke-linecap:butt;stroke-linejoin:miter;stroke-opacity:1" />
      <g
         id="g10119"
         transform="translate(9.32837,0)">
        <path
           d="M 99.66187,105.15823 L 99.184006,109.04052 C 99.107595,109.66129 99.518355,110.59343 99.99319,110.59343 L 105.99517,110.59343 C 106.47243,110.59343 106.8889,109.6655 106.8171,109.04052 L 106.3711,105.15823 C 106.31703,104.68765 105.82569,104.38177 105.46634,104.38177 L 100.573,104.38177 C 100.21187,104.38177 99.719983,104.6861 99.66187,105.15823 z "
           id="path7267"
           style="fill:#82ce7c;fill-opacity:1;fill-rule:evenodd;stroke:none;stroke-width:0.55278249pt;stroke-linecap:butt;stroke-linejoin:miter;stroke-opacity:1" />
        <path
           d="M 99.66187,90.18303 L 99.18401,94.06532 C 99.1076,94.68609 99.51835,95.61823 99.99319,95.61823 L 105.99517,95.61823 C 106.47243,95.61823 106.8889,94.6903 106.8171,94.06532 L 106.3711,90.18303 C 106.31703,89.71245 105.82569,89.40657 105.46634,89.40657 L 100.573,89.40657 C 100.21187,89.40657 99.71998,89.7109 99.66187,90.18303 z "
           id="path7269"
           style="fill:#82ce7c;fill-opacity:1;fill-rule:evenodd;stroke:none;stroke-width:0.55278249pt;stroke-linecap:butt;stroke-linejoin:miter;stroke-opacity:1" />
        <g
           id="g10018"
           transform="translate(-3.625,-0.5)">
          <path
             d="M 202.8154,100.25878 L 201.7869,107.99783 C 201.62244,109.23528 202.50651,111.09343 203.52849,111.09343 L 216.44646,111.09343 C 217.47366,111.09343 218.37001,109.24368 218.21548,107.99783 L 217.25555,100.25878 C 217.13919,99.32072 216.08168,98.71097 215.30825,98.71097 L 204.7764,98.71097 C 203.99914,98.71097 202.94047,99.31763 202.8154,100.25878 z "
             id="path7283"
             style="fill:url(#linearGradient2268);fill-opacity:1;fill-rule:evenodd;stroke:none;stroke-width:0.55278249pt;stroke-linecap:butt;stroke-linejoin:miter;stroke-opacity:1" />
          <path
             d="M 206.66187,90.68303 L 206.184,94.56531 C 206.10759,95.18608 206.51835,96.11822 206.99319,96.11822 L 212.99517,96.11822 C 213.47243,96.11822 213.8889,95.19029 213.8171,94.56531 L 213.37109,90.68303 C 213.31703,90.21245 212.82569,89.90657 212.46633,89.90657 L 207.573,89.90657 C 207.21186,89.90657 206.71998,90.21089 206.66187,90.68303 z "
             id="path7285"
             style="fill:#82ce7c;fill-opacity:1;fill-rule:evenodd;stroke:none;stroke-width:0.55278249pt;stroke-linecap:butt;stroke-linejoin:miter;stroke-opacity:1" />
        </g>
        <g
           id="g10014"
           transform="translate(0,-0.5)">
          <path
             d="M 224.8154,100.25878 L 223.7869,107.99783 C 223.62244,109.23528 224.50651,111.09343 225.52849,111.09343 L 238.44646,111.09343 C 239.47366,111.09343 240.37001,109.24368 240.21548,107.99783 L 239.25555,100.25878 C 239.13919,99.32072 238.08168,98.71097 237.30825,98.71097 L 226.7764,98.71097 C 225.99914,98.71097 224.94047,99.31763 224.8154,100.25878 z "
             id="path7289"
             style="fill:url(#linearGradient2270);fill-opacity:1;fill-rule:evenodd;stroke:none;stroke-width:0.55278249pt;stroke-linecap:butt;stroke-linejoin:miter;stroke-opacity:1" />
          <path
             d="M 228.66187,90.68303 L 228.184,94.56531 C 228.10759,95.18608 228.51835,96.11822 228.99319,96.11822 L 234.99517,96.11822 C 235.47243,96.11822 235.8889,95.19029 235.8171,94.56531 L 235.37109,90.68303 C 235.31703,90.21245 234.82569,89.90657 234.46633,89.90657 L 229.573,89.90657 C 229.21186,89.90657 228.71998,90.21089 228.66187,90.68303 z "
             id="path7291"
             style="fill:#ce7c85;fill-opacity:1;fill-rule:evenodd;stroke:none;stroke-width:0.55278249pt;stroke-linecap:butt;stroke-linejoin:miter;stroke-opacity:1" />
        </g>
        <text
           id="text7299"
           sodipodi:linespacing="100%"
           style="font-size:8px;font-style:normal;font-variant:normal;font-weight:normal;font-stretch:normal;line-height:100%;writing-mode:lr-tb;text-anchor:start;fill:#000000;fill-opacity:1;stroke:none;stroke-width:1px;stroke-linecap:butt;stroke-linejoin:miter;stroke-opacity:1;font-family:Bitstream Vera Sans"
           x="58.5"
           xml:space="preserve"
           y="110.48015"><tspan
             id="tspan7301"
             sodipodi:role="line"
             x="58.5"
             y="110.48015">Collision</tspan></text>
        <text
           id="text7303"
           sodipodi:linespacing="100%"
           style="font-size:8px;font-style:normal;font-variant:normal;font-weight:normal;font-stretch:normal;line-height:100%;writing-mode:lr-tb;text-anchor:start;fill:#000000;fill-opacity:1;stroke:none;stroke-width:1px;stroke-linecap:butt;stroke-linejoin:miter;stroke-opacity:1;font-family:Bitstream Vera Sans"
           x="66.5"
           xml:space="preserve"
           y="95.238602"><tspan
             id="tspan7305"
             sodipodi:role="line"
             x="66.5"
             y="95.238602">Power</tspan></text>
        <g
           id="g10022"
           transform="translate(-29.25,-0.5)">
          <path
             d="M 202.8154,100.25878 L 201.7869,107.99783 C 201.62244,109.23528 202.50651,111.09343 203.52849,111.09343 L 216.44646,111.09343 C 217.47366,111.09343 218.37001,109.24368 218.21548,107.99783 L 217.25555,100.25878 C 217.13919,99.32072 216.08168,98.71097 215.30825,98.71097 L 204.7764,98.71097 C 203.99914,98.71097 202.94047,99.31763 202.8154,100.25878 z "
             id="path10024"
             style="fill:url(#linearGradient2272);fill-opacity:1;fill-rule:evenodd;stroke:none;stroke-width:0.55278249pt;stroke-linecap:butt;stroke-linejoin:miter;stroke-opacity:1" />
          <path
             d="M 206.66187,90.68303 L 206.184,94.56531 C 206.10759,95.18608 206.51835,96.11822 206.99319,96.11822 L 212.99517,96.11822 C 213.47243,96.11822 213.8889,95.19029 213.8171,94.56531 L 213.37109,90.68303 C 213.31703,90.21245 212.82569,89.90657 212.46633,89.90657 L 207.573,89.90657 C 207.21186,89.90657 206.71998,90.21089 206.66187,90.68303 z "
             id="path10026"
             style="fill:#82ce7c;fill-opacity:1;fill-rule:evenodd;stroke:none;stroke-width:0.55278249pt;stroke-linecap:butt;stroke-linejoin:miter;stroke-opacity:1" />
        </g>
        <g
           id="g10030"
           transform="translate(-54.875,-0.5)">
          <path
             d="M 202.8154,100.25878 L 201.7869,107.99783 C 201.62244,109.23528 202.50651,111.09343 203.52849,111.09343 L 216.44646,111.09343 C 217.47366,111.09343 218.37001,109.24368 218.21548,107.99783 L 217.25555,100.25878 C 217.13919,99.32072 216.08168,98.71097 215.30825,98.71097 L 204.7764,98.71097 C 203.99914,98.71097 202.94047,99.31763 202.8154,100.25878 z "
             id="path10032"
             style="fill:url(#linearGradient2274);fill-opacity:1;fill-rule:evenodd;stroke:none;stroke-width:0.55278249pt;stroke-linecap:butt;stroke-linejoin:miter;stroke-opacity:1" />
          <path
             d="M 206.66187,90.68303 L 206.184,94.56531 C 206.10759,95.18608 206.51835,96.11822 206.99319,96.11822 L 212.99517,96.11822 C 213.47243,96.11822 213.8889,95.19029 213.8171,94.56531 L 213.37109,90.68303 C 213.31703,90.21245 212.82569,89.90657 212.46633,89.90657 L 207.573,89.90657 C 207.21186,89.90657 206.71998,90.21089 206.66187,90.68303 z "
             id="path10034"
             style="fill:#82ce7c;fill-opacity:1;fill-rule:evenodd;stroke:none;stroke-width:0.55278249pt;stroke-linecap:butt;stroke-linejoin:miter;stroke-opacity:1" />
        </g>
        <g
           id="g10038"
           transform="translate(-80.5,-0.5)">
          <path
             d="M 202.8154,100.25878 L 201.7869,107.99783 C 201.62244,109.23528 202.50651,111.09343 203.52849,111.09343 L 216.44646,111.09343 C 217.47366,111.09343 218.37001,109.24368 218.21548,107.99783 L 217.25555,100.25878 C 217.13919,99.32072 216.08168,98.71097 215.30825,98.71097 L 204.7764,98.71097 C 203.99914,98.71097 202.94047,99.31763 202.8154,100.25878 z "
             id="path10040"
             style="fill:url(#linearGradient2276);fill-opacity:1;fill-rule:evenodd;stroke:none;stroke-width:0.55278249pt;stroke-linecap:butt;stroke-linejoin:miter;stroke-opacity:1" />
          <path
             d="M 206.66187,90.68303 L 206.184,94.56531 C 206.10759,95.18608 206.51835,96.11822 206.99319,96.11822 L 212.99517,96.11822 C 213.47243,96.11822 213.8889,95.19029 213.8171,94.56531 L 213.37109,90.68303 C 213.31703,90.21245 212.82569,89.90657 212.46633,89.90657 L 207.573,89.90657 C 207.21186,89.90657 206.71998,90.21089 206.66187,90.68303 z "
             id="path10042"
             style="fill:#82ce7c;fill-opacity:1;fill-rule:evenodd;stroke:none;stroke-width:0.55278249pt;stroke-linecap:butt;stroke-linejoin:miter;stroke-opacity:1" />
        </g>
      </g>
    </g>
  </g>
</svg>
